<svg width="691" height="608" viewBox="0 0 691 608" fill="none" xmlns="http://www.w3.org/2000/svg">
	<path d="M385.981 0.541305C385.392 1.13126 384.949 3.34362 384.949 5.40848C384.802 7.47334 383.917 10.8656 382.737 12.9305C381.557 14.9953 380.672 18.3876 380.524 20.4525C380.524 22.6648 379.492 26.7945 378.312 29.5968C377.132 32.5466 376.1 37.7088 376.1 40.9536C376.1 44.4933 375.067 48.0331 373.887 49.213C371.527 51.7203 370.79 60.8647 373.002 62.1921C374.772 63.3721 376.1 59.5373 376.1 53.4902C376.1 50.8354 377.132 47.8856 378.312 46.8532C379.492 45.8207 380.524 42.8709 380.524 40.2161C380.524 37.4138 381.409 33.4316 382.589 31.0717C385.097 26.2046 387.899 15.8803 388.931 8.0633C389.669 2.60616 388.046 -1.52356 385.981 0.541305Z" fill="black" />
	<path d="M172.563 11.3081C172.563 14.7003 176.988 23.5497 179.643 25.1721C180.528 25.7621 181.413 27.9744 181.413 29.8918C181.413 31.8092 182.003 33.7266 182.74 34.3165C183.478 34.759 184.51 36.9713 185.1 39.3312C185.542 41.691 187.017 44.4933 188.197 45.5258C189.377 46.4107 190.262 48.3281 190.262 49.803C190.262 51.2779 191.295 53.1952 192.475 54.2277C193.654 55.2601 194.687 57.325 194.687 58.9473C194.687 60.4222 195.719 62.0446 196.899 62.4871C198.079 63.0771 199.112 64.9944 199.112 66.9118C199.112 68.6817 199.997 70.894 201.029 71.484C202.209 72.074 203.389 73.8438 203.979 75.1712C204.421 76.6461 205.601 77.8261 206.486 77.8261C208.698 77.8261 208.256 73.9913 205.749 71.9265C204.569 70.894 203.536 68.9767 203.536 67.5018C203.536 66.0269 202.504 64.1095 201.324 63.0771C200.144 62.0446 199.112 59.6848 199.112 57.9149C199.112 56.145 198.079 53.7852 196.899 52.7528C195.719 51.7203 194.687 49.803 194.687 48.3281C194.687 46.8532 193.654 44.9358 192.475 43.9034C191.295 42.8709 190.262 41.2485 190.262 40.3636C190.262 39.3312 188.345 34.6115 185.837 29.8918C183.478 25.1721 181.413 20.1575 181.413 18.6826C181.413 17.3552 180.38 15.4378 179.2 14.4054C178.02 13.3729 176.988 11.603 176.988 10.5706C176.988 9.3907 175.956 8.50576 174.776 8.50576C173.596 8.50576 172.563 9.83317 172.563 11.3081Z" fill="black" />
	<path d="M283.771 25.1722C283.328 26.3521 284.066 33.1367 285.246 40.3637C286.573 47.5907 287.606 58.7999 287.606 65.437C287.606 73.5489 288.343 78.1211 289.818 80.186C290.998 81.6609 292.03 85.4956 292.03 88.4454C292.03 91.3952 292.62 94.345 293.505 94.7875C295.718 96.1149 296.75 89.1829 294.98 84.4632C294.095 82.1033 293.063 72.5165 292.62 63.2246C291.44 38.4463 286.721 17.6502 283.771 25.1722Z" fill="black" />
	<path d="M542.911 66.027C529.047 79.7436 517.69 91.6902 517.69 92.5752C517.69 93.3126 516.805 94.0501 515.625 94.0501C513.56 94.0501 481.85 126.498 482.882 127.678C483.767 128.415 489.224 123.696 505.006 108.652C512.38 101.572 525.065 89.6254 533.029 82.1034C559.872 56.8826 570.786 45.8209 570.786 44.1985C570.786 39.3313 565.624 43.3135 542.911 66.027Z" fill="black" />
	<path d="M499.401 64.9944C490.994 74.1388 487.897 77.8261 482.292 85.2006C479.49 88.8878 474.475 94.6399 471.231 98.0322C467.986 101.424 464.004 106.734 462.381 109.831C460.759 112.929 458.399 116.173 457.219 117.206C456.039 118.091 455.449 119.418 456.187 120.008C457.367 121.188 457.662 120.893 473.001 103.637C478.753 97.1472 484.947 90.0677 486.865 88.0029C494.387 80.0384 508.841 61.6021 508.841 60.1273C508.841 56.8825 504.858 58.9473 499.401 64.9944Z" fill="black" />
	<path d="M159.584 64.6997C159.879 65.7321 161.059 66.912 162.092 67.207C163.272 67.6495 163.861 67.0595 163.419 65.8796C163.124 64.8472 161.944 63.6672 160.912 63.3723C159.732 62.9298 159.142 63.5197 159.584 64.6997Z" fill="black" />
	<path d="M369.168 73.4014C369.168 77.0887 369.463 78.5636 369.758 76.6462C370.053 74.8763 370.053 71.9265 369.758 70.0091C369.463 68.2393 369.168 69.7142 369.168 73.4014Z" fill="black" />
	<path d="M163.714 71.779C163.714 72.5165 164.746 73.8439 165.926 74.8763C167.106 75.9087 168.139 77.6786 168.139 78.711C168.139 79.891 168.876 80.7759 169.614 80.7759C170.499 80.7759 171.826 82.3983 172.563 84.4632C173.301 86.528 174.628 88.1504 175.513 88.1504C177.578 88.1504 177.431 85.7906 175.071 83.4307C174.038 82.3983 172.711 80.3334 172.121 78.8585C171.678 77.5311 170.646 76.3512 169.761 76.3512C169.024 76.3512 168.139 75.0238 167.696 73.4014C166.959 70.4516 163.714 69.1242 163.714 71.779Z" fill="black" />
	<path d="M208.698 82.2507C208.108 83.1357 208.256 84.6106 209.141 85.4955C211.058 87.4129 212.533 84.9055 211.058 82.3982C210.026 80.9233 209.583 80.9233 208.698 82.2507Z" fill="black" />
	<path d="M177.283 91.2478C177.578 92.2802 178.758 93.4601 179.79 93.7551C180.97 94.1976 181.56 93.6076 181.118 92.4277C180.823 91.3952 179.643 90.2153 178.611 89.9203C177.431 89.4779 176.841 90.0678 177.283 91.2478Z" fill="black" />
	<path d="M185.837 104.964C185.837 106.292 186.87 107.324 188.197 107.324C189.525 107.324 190.262 106.587 189.967 105.554C189.082 102.899 185.837 102.457 185.837 104.964Z" fill="black" />
	<path d="M247.783 108.799C247.783 109.684 248.816 110.716 249.996 111.159C251.175 111.749 252.208 112.929 252.208 114.109C252.208 117.206 262.975 127.383 269.907 130.923C278.904 135.495 292.768 135.2 300.732 130.333C306.632 126.498 314.154 119.271 314.154 117.353C314.154 116.616 313.121 116.174 311.941 116.174C310.761 116.174 309.729 117.206 309.729 118.386C309.729 119.566 308.844 120.598 307.664 120.598C306.484 120.598 305.304 121.483 304.862 122.368C304.419 123.843 303.534 123.843 301.027 122.368C298.225 120.746 297.782 120.893 296.602 123.99C293.063 132.987 271.677 128.268 257.665 115.436C254.715 112.634 252.208 109.684 252.208 108.946C252.208 108.062 251.175 107.324 249.996 107.324C248.816 107.324 247.783 108.062 247.783 108.799Z" fill="black" />
	<path d="M397.486 111.159C394.241 116.174 395.273 116.911 399.403 112.486C401.173 110.569 402.058 108.652 401.32 108.209C400.583 107.767 398.961 109.094 397.486 111.159Z" fill="black" />
	<path d="M190.262 110.864C190.262 113.076 192.917 115.436 194.097 114.256C195.129 113.224 193.065 108.799 191.59 108.799C190.852 108.799 190.262 109.684 190.262 110.864Z" fill="black" />
	<path d="M388.636 121.336C387.014 123.253 384.507 125.17 383.179 125.613C380.229 126.35 379.492 129.448 382.442 129.448C384.212 129.3 390.849 123.106 392.913 119.418C394.683 116.321 391.734 117.648 388.636 121.336Z" fill="black" />
	<path d="M416.954 129.89C416.512 130.923 416.659 132.692 417.397 133.725C418.134 135.2 418.577 135.052 419.314 133.43C419.757 132.397 419.609 130.628 418.872 129.595C418.134 128.12 417.692 128.268 416.954 129.89Z" fill="black" />
	<path d="M476.835 131.365C473.591 132.692 472.116 136.822 474.623 136.822C475.95 136.822 481.26 130.923 480.523 130.185C480.228 130.038 478.605 130.48 476.835 131.365Z" fill="black" />
	<path d="M425.214 137.855C422.117 138.887 423.001 142.722 426.246 142.722C427.869 142.722 429.196 141.837 429.196 140.657C429.196 138.002 427.574 136.97 425.214 137.855Z" fill="black" />
	<path d="M442.47 140.509C442.47 141.689 443.503 142.722 444.682 142.722C445.862 142.722 446.895 141.689 446.895 140.509C446.895 139.329 445.862 138.297 444.682 138.297C443.503 138.297 442.47 139.329 442.47 140.509Z" fill="black" />
	<path d="M461.644 141.984C461.644 144.639 462.381 145.672 464.594 145.672C468.281 145.672 470.198 141.394 467.396 139.624C463.709 137.412 461.644 138.15 461.644 141.984Z" fill="black" />
	<path d="M58.2585 144.344C57.6686 145.229 57.5211 146.114 57.6686 146.261C66.518 152.899 70.5002 155.258 78.7596 159.683C84.2168 162.485 89.6739 164.845 90.8538 164.845C94.0986 164.845 93.3611 162.043 89.6739 160.273C85.9866 158.651 83.6268 157.323 74.1874 151.129C70.6477 148.916 67.2554 147.146 66.518 147.146C65.7805 147.146 64.4531 146.114 63.4207 144.934C61.2083 142.279 59.5859 142.132 58.2585 144.344Z" fill="black" />
	<path d="M234.214 145.967C232.592 148.474 232.444 150.391 233.624 153.489C235.837 159.388 238.196 157.618 238.639 149.654C239.081 142.132 237.459 140.804 234.214 145.967Z" fill="black" />
	<path d="M433.768 147.736C432.441 149.211 432.588 150.096 434.211 151.424C435.686 152.751 436.57 152.604 437.898 150.981C439.225 149.506 439.078 148.621 437.455 147.294C435.981 145.966 435.096 146.114 433.768 147.736Z" fill="black" />
	<path d="M451.614 149.654C451.909 151.424 453.384 152.309 455.744 152.309C458.104 152.309 459.579 151.424 459.874 149.654C460.316 147.736 459.431 147.146 455.744 147.146C452.057 147.146 451.172 147.736 451.614 149.654Z" fill="black" />
	<path d="M469.018 149.359C469.018 150.539 470.051 151.571 471.231 151.571C472.411 151.571 473.443 150.539 473.443 149.359C473.443 148.179 472.411 147.146 471.231 147.146C470.051 147.146 469.018 148.179 469.018 149.359Z" fill="black" />
	<path d="M123.892 154.963C123.892 158.208 127.284 160.421 132.299 160.421C137.461 160.421 138.936 157.913 134.658 156.586C133.183 156.143 130.824 155.111 129.496 154.373C125.809 152.456 123.892 152.751 123.892 154.963Z" fill="black" />
	<path d="M421.379 155.406C419.462 157.323 420.347 163.518 422.559 164.255C425.656 165.583 429.491 162.043 428.901 158.356C428.459 155.258 423.444 153.341 421.379 155.406Z" fill="black" />
	<path d="M442.765 158.503C443.355 161.601 447.632 162.191 447.632 158.946C447.632 157.766 446.452 156.586 444.978 156.291C442.913 155.848 442.323 156.438 442.765 158.503Z" fill="black" />
	<path d="M460.169 158.208C460.169 159.388 461.201 160.421 462.381 160.421C463.561 160.421 464.594 159.388 464.594 158.208C464.594 157.028 463.561 155.996 462.381 155.996C461.201 155.996 460.169 157.028 460.169 158.208Z" fill="black" />
	<path d="M478.9 156.881C477.72 158.061 479.048 160.421 480.965 160.421C481.702 160.421 482.292 159.388 482.292 158.208C482.292 155.996 480.523 155.258 478.9 156.881Z" fill="black" />
	<path d="M228.02 164.108C223.447 169.565 217.843 170.892 216.22 166.91C215.778 165.73 214.598 165.14 213.713 165.583C212.681 166.32 212.976 167.5 214.451 169.123C215.778 170.597 216.368 172.22 215.778 172.662C215.336 173.252 208.551 173.695 200.734 173.695C192.917 173.695 185.69 174.285 184.658 175.022C181.56 176.939 187.755 178.119 201.324 178.119C210.321 178.119 214.598 177.382 219.023 175.17C226.545 171.335 234.509 164.255 234.509 161.306C234.509 157.618 232.739 158.503 228.02 164.108Z" fill="black" />
	<path d="M94.6886 166.615C95.1311 167.648 96.7535 168.68 98.5234 168.975C100.146 169.27 102.358 170.45 103.243 171.63C104.275 172.81 106.045 173.695 107.225 173.695C110.323 173.695 108.7 170.155 105.308 169.417C103.833 169.122 101.916 168.09 101.326 166.91C99.8508 164.255 93.9512 164.108 94.6886 166.615Z" fill="black" />
	<path d="M155.897 165.73C154.275 167.5 156.339 169.27 160.027 169.27C161.944 169.27 163.861 168.68 164.304 167.943C165.779 165.73 157.962 163.665 155.897 165.73Z" fill="black" />
	<path d="M431.556 166.025C430.228 168.09 434.653 171.187 437.455 170.155C438.635 169.712 439.52 168.385 439.225 167.352C438.34 165.14 432.736 164.108 431.556 166.025Z" fill="black" />
	<path d="M451.615 167.353C451.91 168.827 453.089 170.007 454.269 170.007C455.449 170.007 456.629 168.827 456.924 167.353C457.219 165.583 456.482 164.845 454.269 164.845C452.057 164.845 451.32 165.583 451.615 167.353Z" fill="black" />
	<path d="M469.018 167.058C469.018 168.533 470.051 169.27 471.673 168.975C474.77 168.385 474.475 165.73 471.378 165.14C469.903 164.845 469.018 165.583 469.018 167.058Z" fill="black" />
	<path d="M487.455 166.173C486.422 167.942 489.224 169.712 491.142 168.532C492.764 167.5 491.732 164.845 489.667 164.845C488.929 164.845 488.045 165.435 487.455 166.173Z" fill="black" />
	<path d="M167.401 170.745C166.369 172.515 173.153 174.285 176.398 173.105C177.578 172.662 178.168 171.63 177.726 170.745C176.546 168.827 168.581 168.827 167.401 170.745Z" fill="black" />
	<path d="M424.771 170.745C424.771 171.63 425.804 172.662 426.984 173.105C428.164 173.695 429.196 174.874 429.196 176.054C429.196 177.234 429.786 178.119 430.376 178.119C431.113 178.119 433.768 180.184 436.276 182.691C438.93 185.199 441.88 186.969 443.06 186.526C444.092 186.084 446.6 186.821 448.37 188.001C452.204 190.656 469.166 191.836 474.623 189.771C477.425 188.739 477.72 188.001 476.393 185.494C474.328 181.659 470.346 181.659 467.101 185.494C463.856 189.329 462.824 189.181 458.694 184.756C455.892 181.807 454.269 181.217 451.025 181.807C446.747 182.839 445.715 181.364 448.517 178.562C451.025 176.054 448.96 172.22 445.272 172.22C443.503 172.22 441.88 173.4 441.438 175.169C440.258 179.594 434.801 178.857 431.408 173.695C428.459 169.417 424.771 167.795 424.771 170.745Z" fill="black" />
	<path d="M618.721 170.745C617.541 172.515 621.67 174.285 623.883 172.957C624.768 172.515 625.063 171.335 624.62 170.597C623.44 168.827 619.901 168.827 618.721 170.745Z" fill="black" />
	<path d="M461.201 173.105C460.611 173.695 460.169 175.464 460.169 176.939C460.169 179.889 463.856 180.627 465.479 177.972C466.659 176.054 462.676 171.63 461.201 173.105Z" fill="black" />
	<path d="M17.6989 175.907C17.6989 177.087 18.5838 178.119 19.7637 178.119C20.7961 178.119 22.566 179.152 23.5985 180.332C24.6309 181.512 26.8432 182.544 28.6131 182.544C30.383 182.544 33.1853 183.576 34.8077 184.756C36.2826 185.936 38.6424 186.969 39.9698 186.969C41.2973 186.969 43.2146 188.001 44.2471 189.181C45.2795 190.361 47.0494 191.393 48.2293 191.393C49.4092 191.393 52.8015 192.426 55.7513 193.753C71.8277 200.538 77.5798 202.75 85.3968 204.668C88.0516 205.405 91.0014 206.585 91.8863 207.47C94.2462 209.83 102.211 209.535 101.473 207.175C101.031 206.29 99.2608 205.11 97.196 204.963C95.2786 204.668 92.7713 203.635 91.5914 202.75C89.5265 200.98 82.742 198.325 74.1875 195.671C71.5327 194.933 69.0254 193.606 68.5829 192.868C67.993 191.983 66.6655 191.393 65.3381 191.393C64.1582 191.393 60.7659 190.361 57.8161 189.034C54.7189 187.854 50.4416 185.936 47.9343 184.904C45.5745 183.724 40.5598 181.807 36.8726 180.332C33.1853 179.004 28.3181 176.939 26.1058 175.76C20.6487 173.105 17.6989 173.105 17.6989 175.907Z" fill="black" />
	<path d="M477.868 175.612C477.868 176.792 478.31 178.119 478.753 178.562C480.228 179.889 485.537 176.792 484.505 175.022C483.177 172.957 477.868 173.4 477.868 175.612Z" fill="black" />
	<path d="M496.304 175.022C495.862 175.907 496.746 177.234 498.369 178.119C501.466 179.742 503.826 177.824 502.204 175.169C501.024 173.252 497.484 173.252 496.304 175.022Z" fill="black" />
	<path d="M516.805 176.202C516.363 177.677 515.33 180.037 514.593 181.512C513.708 183.134 513.413 184.756 514.003 185.199C515.183 186.526 523.737 176.644 522.852 175.022C521.377 172.81 517.69 173.547 516.805 176.202Z" fill="black" />
	<path d="M607.659 175.17C605.889 176.35 605.889 176.645 607.954 177.382C610.904 178.562 614.001 177.087 612.821 175.022C611.641 173.4 610.461 173.4 607.659 175.17Z" fill="black" />
	<path d="M596.597 179.594C595.417 181.364 599.547 183.134 601.759 181.807C602.644 181.364 602.939 180.184 602.497 179.447C601.317 177.677 597.777 177.677 596.597 179.594Z" fill="black" />
	<path d="M486.717 183.871C486.717 184.756 487.307 185.641 488.045 186.084C489.962 187.264 494.239 185.494 493.207 183.871C492.174 182.102 486.717 182.102 486.717 183.871Z" fill="black" />
	<path d="M586.568 183.576C584.503 185.494 585.683 187.116 588.78 186.674C592.762 186.084 594.09 182.544 590.403 182.544C588.78 182.544 587.01 182.986 586.568 183.576Z" fill="black" />
	<path d="M509.578 188.591C508.988 189.476 508.841 190.508 509.283 190.951C510.316 191.983 513.265 190.066 513.265 188.296C513.265 186.526 510.758 186.526 509.578 188.591Z" fill="black" />
	<path d="M574.769 188.001C572.556 190.066 573.884 191.541 577.718 191.098C582.733 190.508 584.061 186.969 579.341 186.969C577.276 186.969 575.211 187.411 574.769 188.001Z" fill="black" />
	<path d="M147.048 192.426C146.605 193.163 146.753 194.638 147.343 195.671C148.08 196.703 148.965 196.998 149.408 196.261C149.85 195.523 149.702 194.048 149.113 193.016C148.375 191.983 147.49 191.688 147.048 192.426Z" fill="black" />
	<path d="M562.674 192.721C562.232 193.458 562.527 194.491 563.412 195.081C565.477 196.408 571.081 194.491 570.049 192.721C568.869 190.951 563.854 190.951 562.674 192.721Z" fill="black" />
	<path d="M552.35 197.293C551.17 199.063 555.3 200.833 557.512 199.505C558.397 199.063 558.692 197.883 558.25 197.146C557.07 195.376 553.53 195.376 552.35 197.293Z" fill="black" />
	<path d="M542.321 201.128C540.846 202.75 542.763 204.667 545.861 204.667C547.336 204.667 548.663 203.635 548.663 202.455C548.663 200.243 544.091 199.358 542.321 201.128Z" fill="black" />
	<path d="M150.44 206.585C150.44 209.387 151.472 214.107 152.652 217.057C154.717 222.071 154.717 222.956 152.652 227.086C151.472 229.593 150.44 232.838 150.44 234.165C150.44 237.853 141.296 249.799 134.511 255.109C126.989 261.009 128.611 263.516 137.018 259.091C145.278 254.814 153.242 245.08 156.782 234.755C159.437 227.086 159.584 225.464 157.814 219.416C156.782 215.729 155.602 210.567 155.012 207.765C153.832 200.833 150.44 199.948 150.44 206.585Z" fill="black" />
	<path d="M495.272 204.373C494.829 206.142 494.534 224.579 494.682 245.522L494.829 283.575L507.218 284.017C516.215 284.312 520.05 283.87 520.787 282.542C521.525 281.51 522.115 276.053 522.115 270.596C522.115 265.138 523 256.142 524.18 250.684C526.539 239.918 528.309 205.11 526.687 204.078C526.097 203.635 519.017 202.898 510.758 202.308C496.599 201.423 496.009 201.423 495.272 204.373Z" fill="black" />
	<path d="M105.603 210.42C105.16 211.157 105.75 212.042 106.93 212.632C109.143 213.517 111.207 211.599 109.585 209.977C108.258 208.65 106.488 208.797 105.603 210.42Z" fill="black" />
	<path d="M379.049 216.467C377.869 217.204 374.035 217.942 370.642 217.942C367.25 217.942 362.678 218.679 360.613 219.416L356.778 220.891L357.663 236.82C358.106 245.522 358.843 258.796 359.286 266.171C359.876 277.527 359.728 279.887 357.958 279.887C356.778 279.887 350.289 270.743 343.652 259.534C336.867 248.472 329.64 236.968 327.428 234.165C325.216 231.363 323.003 227.528 322.413 225.758C321.823 223.989 320.201 222.219 318.873 221.776C314.744 220.449 287.606 223.546 285.098 225.611C282.591 227.528 282.886 236.968 286.131 262.189C286.868 268.236 287.458 278.412 287.606 284.754C287.606 294.489 288.343 297.881 292.03 305.993C294.538 311.155 296.455 316.17 296.455 317.055C296.455 317.792 297.34 320.3 298.372 322.364C299.552 324.577 301.322 328.264 302.502 330.771C304.567 334.901 305.157 335.196 312.089 334.754C323.741 333.869 323.593 334.606 321.381 300.683C320.348 284.46 319.906 270.743 320.348 270.3C322.413 268.236 325.805 272.218 331.558 284.017C344.979 310.86 353.534 326.199 355.746 327.527C357.368 328.559 360.761 328.264 366.808 326.642C371.675 325.167 378.017 324.134 380.967 324.134C388.194 324.134 393.061 319.562 391.734 314.105C391.144 311.893 390.406 290.212 389.964 265.876C389.521 241.54 388.931 220.154 388.489 218.236C387.751 214.697 383.179 213.812 379.049 216.467Z" fill="black" />
	<path d="M440.258 220.154C436.276 221.334 431.703 222.219 430.376 222.366C426.246 222.366 411.055 232.248 404.123 239.328L397.486 246.112L397.928 281.067C398.371 315.137 398.518 316.17 401.91 321.48C406.335 328.117 417.102 335.786 426.984 339.178C436.128 342.423 450.877 342.571 458.252 339.473C469.608 334.606 474.328 332.246 480.08 328.117L485.98 323.987V313.81C485.98 305.551 486.57 303.191 488.782 301.568C492.174 299.061 491.732 294.931 484.947 270.891C482.292 261.599 481.85 261.304 474.623 263.368C471.083 264.401 466.364 265.876 463.856 266.613C461.496 267.203 457.514 268.531 455.007 269.416C452.647 270.301 448.665 271.333 446.305 271.775C442.175 272.66 442.175 272.808 442.765 281.362C443.06 286.229 443.798 290.654 444.388 291.244C444.978 291.834 448.812 291.392 452.794 290.359C461.496 288.147 464.594 289.622 464.594 295.964C464.594 305.698 444.83 310.418 434.948 303.191C427.426 297.586 424.329 290.802 424.476 279.74C424.476 271.775 425.214 268.826 428.311 263.958C434.653 253.929 440.405 250.537 464.299 243.605C466.216 243.015 465.921 236.378 463.709 225.759C462.086 217.942 454.712 216.172 440.258 220.154Z" fill="black" />
	<path d="M250.733 252.897C237.311 254.077 221.235 258.206 220.645 260.566C220.35 261.894 219.318 266.613 218.285 271.038C217.4 275.463 215.925 282.1 215.04 285.787C214.156 289.474 212.976 296.111 212.238 300.536C211.648 304.961 210.616 309.975 210.173 311.745C209.436 313.958 210.911 316.612 215.04 321.775C222.71 330.919 225.365 341.686 222.71 351.715C221.678 355.55 219.908 359.827 218.728 361.154C217.695 362.334 216.81 364.547 216.81 365.874C216.81 367.939 218.138 368.234 226.102 367.496C237.017 366.316 238.934 364.547 238.934 354.96C238.934 346.848 239.819 346.258 252.798 346.258C262.532 346.258 265.482 347.88 265.482 353.042C265.482 354.812 266.662 357.762 268.137 359.532C270.644 362.482 271.234 362.629 277.281 361.007C296.603 355.992 301.322 354.37 301.912 352.747C302.65 350.83 296.455 334.754 289.67 320.742C288.491 318.382 287.606 315.727 287.606 314.842C287.606 313.958 285.688 309.09 283.328 304.223C281.116 299.356 278.019 292.424 276.544 288.737C273.889 281.805 271.972 276.938 267.842 267.646C266.515 264.548 265.482 261.304 265.482 260.271C265.482 257.616 259.877 251.864 257.665 252.159C256.633 252.159 253.535 252.602 250.733 252.897ZM249.258 295.521C250.881 299.356 252.208 303.486 252.208 304.961C252.208 306.436 253.24 309.975 254.42 312.778C257.96 321.332 257.37 323.397 250.881 325.019C240.114 327.969 238.786 324.429 242.031 303.191C244.686 285.787 244.833 285.787 249.258 295.521Z" fill="black" />
	<path d="M138.346 265.138C127.579 268.678 114.157 275.315 111.355 278.413C108.995 281.067 109.438 287.262 113.42 302.748C114.157 305.993 115.632 312.335 116.517 316.76C119.762 333.131 122.859 345.963 126.252 356.73C127.431 360.564 128.316 364.547 128.316 365.874C128.316 367.054 129.644 371.036 131.266 374.871L134.363 381.656H146.605C153.832 381.656 161.502 380.771 165.189 379.443C168.581 378.263 173.153 377.231 175.366 377.231C177.431 377.231 180.528 376.198 182.003 375.018C183.625 373.839 185.985 372.806 187.46 372.806C190.262 372.806 201.619 367.791 205.159 365.137C210.616 360.712 216.81 350.093 216.81 345.225C216.81 330.477 202.504 316.76 187.165 316.76C182.003 316.76 179.938 313.81 183.773 311.745C185.248 310.86 189.377 307.321 192.917 303.781C197.784 298.914 199.112 296.406 199.112 292.572C199.112 282.69 192.18 271.775 181.413 264.696C176.103 261.009 149.702 261.451 138.346 265.138ZM162.829 293.161C165.041 293.899 167.844 296.849 169.171 299.799C171.531 304.813 171.531 305.108 168.581 309.09C164.894 313.958 155.897 318.972 152.8 317.792C151.472 317.202 150.44 315.58 150.44 313.958C150.44 312.335 149.26 308.648 147.933 305.698C145.13 299.651 146.163 296.554 152.062 293.604C156.339 291.392 157.962 291.244 162.829 293.161ZM171.236 327.969C173.743 329.149 176.693 332.394 177.873 335.344C179.79 339.768 179.79 340.948 177.726 344.783C175.218 349.65 168.729 353.632 163.272 353.632C160.469 353.632 159.437 352.305 157.372 346.553C156.045 342.718 154.865 337.261 154.865 334.311C154.865 329.592 155.455 328.854 159.732 327.379C166.221 325.314 166.221 325.314 171.236 327.969Z" fill="black" />
	<path d="M551.76 265.729C550.433 267.203 550.58 268.088 552.35 269.563C555.153 271.923 558.397 269.416 557.07 266.024C555.89 263.074 553.973 263.074 551.76 265.729Z" fill="black" />
	<path d="M536.126 272.513C535.684 273.398 536.864 274.578 538.929 275.463C540.994 276.2 542.763 277.528 542.763 278.413C542.763 279.15 544.091 279.887 545.713 279.887C547.336 279.887 548.663 278.855 548.663 277.675C548.663 276.495 547.778 275.463 546.598 275.463C545.566 275.463 543.796 274.43 542.763 273.25C540.698 270.743 537.454 270.301 536.126 272.513Z" fill="black" />
	<path d="M561.937 277.675C561.937 278.855 562.969 279.887 564.149 279.887C565.329 279.887 566.362 278.855 566.362 277.675C566.362 276.495 565.329 275.463 564.149 275.463C562.969 275.463 561.937 276.495 561.937 277.675Z" fill="black" />
	<path d="M531.997 283.87C531.407 284.312 530.964 287.262 530.964 290.212C530.964 296.111 535.684 302.011 540.698 302.011C542.173 302.158 545.123 303.043 547.188 304.223C549.253 305.403 552.498 306.288 554.268 306.436C559.135 306.436 557.66 302.896 552.645 302.306C549.548 301.863 548.663 300.979 548.663 298.324C548.663 293.604 546.303 292.424 542.026 295.226C540.109 296.554 537.749 297.586 536.864 297.586C534.651 297.586 535.094 292.277 537.601 290.212C540.551 287.852 540.404 284.902 537.454 283.722C534.504 282.542 533.176 282.542 531.997 283.87Z" fill="black" />
	<path d="M70.0578 285.787C68.8779 287.704 73.0076 289.327 75.9574 288.147C77.1373 287.704 78.1698 286.672 78.1698 285.787C78.1698 283.87 71.2377 283.87 70.0578 285.787Z" fill="black" />
	<path d="M553.088 286.524C553.088 287.852 553.825 288.737 554.71 288.442C555.595 288.147 556.332 287.262 556.332 286.524C556.332 285.787 555.595 284.902 554.71 284.607C553.825 284.312 553.088 285.197 553.088 286.524Z" fill="black" />
	<path d="M561.937 295.226C561.937 296.554 562.969 297.586 564.297 297.586C566.804 297.586 566.362 294.342 563.707 293.457C562.674 293.162 561.937 293.899 561.937 295.226Z" fill="black" />
	<path d="M497.631 301.126C492.322 303.486 491.142 305.846 491.142 313.81C491.142 319.857 493.207 322.807 499.991 326.347C509.873 331.361 521.967 319.267 518.427 307.911C517.248 304.223 509.431 299.061 505.153 299.061C503.531 299.209 500.139 300.094 497.631 301.126Z" fill="black" />
	<path d="M31.7104 303.781C3.24478 305.993 0 306.436 0 308.796C0 310.565 4.12972 310.86 23.3034 310.86C35.9876 310.713 51.179 310.123 56.7837 309.385C62.5358 308.648 71.0902 307.616 75.9574 307.173C91.5913 305.698 95.1311 304.813 92.7712 303.338C90.2639 301.716 53.9813 302.011 31.7104 303.781Z" fill="black" />
	<path d="M585.093 316.17C583.323 317.94 585.683 319.71 589.96 319.71C592.32 319.71 594.532 319.12 594.975 318.382C596.45 316.022 587.305 313.958 585.093 316.17Z" fill="black" />
	<path d="M571.524 321.332C570.049 323.544 571.966 325.019 573.884 323.102C574.916 322.07 574.916 321.185 574.031 320.595C573.146 320.152 571.966 320.447 571.524 321.332Z" fill="black" />
	<path d="M644.826 322.659C652.643 323.249 661.935 324.872 665.475 326.199C669.752 327.822 675.062 328.559 681.404 328.264C705.887 327.084 675.799 321.185 646.744 321.48L630.52 321.627L644.826 322.659Z" fill="black" />
	<path d="M63.4208 325.757C61.5034 326.642 55.3088 327.674 49.8517 328.264C44.2471 328.854 39.8224 329.886 39.8224 330.771C39.8224 333.279 55.8988 333.426 59.881 330.919C61.7984 329.591 66.2231 328.559 69.9104 328.559C78.1698 328.559 82.152 327.232 79.3497 325.462C76.8424 323.839 67.993 323.987 63.4208 325.757Z" fill="black" />
	<path d="M543.058 331.066C543.353 332.541 544.533 333.721 545.713 333.721C546.893 333.721 548.073 332.541 548.368 331.066C548.663 329.297 547.925 328.559 545.713 328.559C543.501 328.559 542.763 329.297 543.058 331.066Z" fill="black" />
	<path d="M562.674 330.034C562.085 330.919 562.232 332.394 563.117 333.279C564.002 334.164 564.887 334.164 565.624 332.984C566.214 332.099 566.067 330.624 565.182 329.739C564.297 328.854 563.412 328.854 562.674 330.034Z" fill="black" />
	<path d="M495.272 336.966C493.797 337.261 492.617 338.293 492.617 339.031C492.617 339.768 489.814 341.686 486.422 343.456C476.54 348.47 473.443 351.862 473.443 358.205C473.443 363.809 481.997 384.753 485.095 386.67C485.98 387.26 486.717 389.03 486.717 390.652C486.717 392.275 487.75 393.897 488.929 394.34C490.109 394.93 491.142 395.962 491.142 396.699C491.142 398.174 499.106 409.236 502.204 411.891C503.089 412.628 504.711 414.693 505.743 416.316C507.366 418.97 507.513 418.823 506.776 414.546C506.186 410.563 506.481 409.826 509.283 409.384C511.348 409.089 512.528 407.909 512.528 405.991C512.528 402.304 507.071 401.272 504.416 404.516C503.383 405.696 502.056 406.729 501.319 406.729C499.106 406.729 499.844 402.009 502.351 399.059C504.416 396.994 504.416 396.109 502.941 394.192C501.909 393.012 499.844 391.98 498.369 391.98C496.451 391.98 495.566 390.652 495.272 387.26C494.977 383.573 493.944 382.245 491.142 381.655C485.685 380.328 485.98 373.691 491.584 373.101C495.124 372.659 495.566 373.101 495.566 377.083C495.566 381.213 496.009 381.655 499.991 381.655C503.973 381.655 504.416 381.213 504.416 377.231C504.416 373.249 504.858 372.806 508.841 372.806C512.528 372.806 513.265 372.216 513.265 369.119C513.265 366.021 512.528 365.432 508.841 365.432C505.153 365.432 504.416 366.021 504.416 369.119C504.416 372.216 503.678 372.806 499.991 372.806C496.304 372.806 495.566 372.216 495.566 369.119C495.566 366.169 496.451 365.137 499.844 364.547C503.236 363.809 504.416 362.777 504.711 359.679C505.006 356.73 506.038 355.697 509.283 355.402C512.675 354.96 513.265 354.222 513.265 350.535C513.265 346.7 513.708 346.258 517.69 346.258C521.082 346.258 522.115 345.52 522.115 343.456C522.115 338.588 518.87 338.146 515.183 342.423C511.2 347.143 505.448 347.143 504.711 342.571C504.268 339.768 500.434 335.786 498.664 336.081C498.221 336.229 496.599 336.523 495.272 336.966ZM504.121 350.978C504.563 354.665 504.121 355.107 500.139 355.107C496.009 355.107 495.566 354.665 495.566 350.535C495.566 346.553 496.009 346.11 499.696 346.553C502.794 346.848 503.826 347.88 504.121 350.978ZM495.272 360.859C495.714 364.989 495.419 365.727 493.354 364.842C492.027 364.399 489.962 363.957 488.782 363.957C486.275 363.957 485.98 357.172 488.634 356.14C492.617 354.37 494.829 355.992 495.272 360.859Z" fill="black" />
	<path d="M532.734 341.391C533.029 344.34 533.914 345.52 536.126 345.52C540.698 345.52 540.256 338.293 535.684 337.703C532.734 337.261 532.292 337.703 532.734 341.391Z" fill="black" />
	<path d="M553.678 340.506C553.235 341.391 553.53 342.866 554.415 343.751C555.595 344.93 556.037 344.488 556.037 342.128C556.037 338.588 555.3 337.998 553.678 340.506Z" fill="black" />
	<path d="M525.802 348.618C523.737 350.83 523.59 351.42 525.507 353.338C528.162 355.845 530.964 354.517 530.964 350.683C530.964 346.7 528.604 345.816 525.802 348.618Z" fill="black" />
	<path d="M543.206 350.093C542.173 352.747 544.828 355.845 547.041 354.517C549.548 352.895 548.958 347.733 546.451 347.733C545.123 347.733 543.796 348.765 543.206 350.093Z" fill="black" />
	<path d="M561.052 351.42C559.872 354.37 561.495 356.14 566.362 357.025C568.427 357.32 569.312 357.32 568.279 357.025C567.394 356.73 566.362 354.96 566.067 353.337C565.477 349.355 562.232 348.175 561.052 351.42Z" fill="black" />
	<path d="M515.92 356.73C514.445 357.467 513.265 359.532 513.265 361.007C513.265 363.367 514.298 363.957 517.838 363.957C521.82 363.957 522.262 363.514 521.82 359.975C521.377 355.55 519.607 354.517 515.92 356.73Z" fill="black" />
	<path d="M533.471 357.615C531.259 359.68 532.439 363.957 535.241 363.957C539.076 363.957 540.551 361.449 538.339 358.795C536.274 356.435 534.946 355.992 533.471 357.615Z" fill="black" />
	<path d="M582.291 362.039C584.061 362.334 586.715 362.334 588.19 362.039C589.518 361.597 588.043 361.302 584.798 361.449C581.553 361.449 580.373 361.744 582.291 362.039Z" fill="black" />
	<path d="M595.27 365.137C594.237 366.907 597.777 368.381 603.529 368.381C609.871 368.381 607.954 364.842 601.464 364.252C598.515 363.957 595.712 364.399 595.27 365.137Z" fill="black" />
	<path d="M525.065 369.709C525.065 371.331 528.899 372.954 530.079 371.774C530.522 371.331 530.522 370.299 530.079 369.709C529.047 367.939 525.065 368.086 525.065 369.709Z" fill="black" />
	<path d="M612.969 369.709C612.084 371.036 618.868 372.806 624.768 372.806C628.75 372.806 629.487 370.594 625.948 369.266C622.408 367.939 613.854 368.234 612.969 369.709Z" fill="black" />
	<path d="M516.658 373.839C515.625 374.134 514.74 376.198 514.74 378.116C514.74 380.918 515.478 381.656 518.575 381.656C521.82 381.656 522.262 381.066 521.82 377.673C521.377 373.691 519.755 372.511 516.658 373.839Z" fill="black" />
	<path d="M631.11 374.871C632.142 376.198 635.24 377.231 637.747 377.231C640.254 377.378 643.941 378.263 646.006 379.443C650.431 381.95 661.198 382.393 660.46 380.033C659.575 377.231 648.661 373.839 638.632 373.249C630.077 372.659 629.34 372.806 631.11 374.871Z" fill="black" />
	<path d="M533.029 376.493C532.439 377.821 532.734 379.591 533.619 380.476C535.831 382.688 540.109 380.623 539.519 377.673C538.929 374.281 534.209 373.396 533.029 376.493Z" fill="black" />
	<path d="M504.416 386.818C504.416 389.915 505.153 390.505 508.841 390.505C512.528 390.505 513.265 389.915 513.265 386.818C513.265 383.72 512.528 383.13 508.841 383.13C505.153 383.13 504.416 383.72 504.416 386.818Z" fill="black" />
	<path d="M119.467 389.178C119.467 392.717 122.859 392.275 123.597 388.588C123.892 387.113 123.154 386.08 121.827 386.08C120.352 386.08 119.467 387.408 119.467 389.178Z" fill="black" />
	<path d="M525.802 387.408C524.77 389.177 527.572 390.947 529.489 389.767C531.112 388.735 530.079 386.08 528.014 386.08C527.277 386.08 526.392 386.67 525.802 387.408Z" fill="black" />
	<path d="M176.841 392.127C175.366 393.012 175.956 393.75 178.758 394.782C180.823 395.52 183.035 396.994 183.625 397.732C184.068 398.617 185.837 399.354 187.312 399.354C188.935 399.354 191.442 401.124 192.769 403.337C194.244 405.696 197.194 409.089 199.554 410.859C203.241 414.103 203.536 415.136 203.536 426.05C203.536 437.259 203.389 437.849 199.849 439.177C196.014 440.652 195.129 442.716 197.637 444.339C199.849 445.666 199.407 450.386 196.899 452.451C194.687 454.368 193.802 459.825 195.867 459.825C196.457 459.678 199.554 457.465 202.651 454.663C207.371 450.533 207.961 449.353 205.896 448.616C202.946 447.436 202.799 441.684 205.749 439.177C207.371 437.702 207.961 434.014 207.961 422.953V408.646L202.504 402.452C198.227 397.879 194.687 395.815 187.755 393.602C182.593 392.127 177.873 391.39 176.841 392.127Z" fill="black" />
	<path d="M115.927 395.667C115.485 396.847 115.78 398.174 116.37 398.617C117.107 399.059 117.992 398.322 118.582 397.142C119.024 395.962 118.729 394.635 118.14 394.192C117.402 393.75 116.517 394.487 115.927 395.667Z" fill="black" />
	<path d="M516.363 394.782C513.708 396.552 515.625 399.354 519.312 399.354C521.377 399.354 522.115 398.469 521.82 396.847C521.23 393.897 519.165 393.012 516.363 394.782Z" fill="black" />
	<path d="M147.638 396.257C144.54 398.174 148.08 399.502 153.537 398.322C157.667 397.584 157.962 397.289 155.602 396.257C151.62 394.782 149.997 394.782 147.638 396.257Z" fill="black" />
	<path d="M168.434 396.552C168.729 397.437 169.614 398.027 170.351 398.027C171.089 398.027 171.973 397.437 172.268 396.552C172.563 395.667 171.678 394.93 170.351 394.93C169.024 394.93 168.139 395.667 168.434 396.552Z" fill="black" />
	<path d="M533.177 396.404C532.734 397.142 532.587 397.879 533.029 397.879C533.324 397.879 534.651 398.322 535.979 398.764C537.601 399.354 538.339 398.912 538.339 397.289C538.339 394.635 534.651 394.045 533.177 396.404Z" fill="black" />
	<path d="M176.988 405.991C176.988 407.171 178.02 408.204 179.2 408.204C180.38 408.204 181.413 407.171 181.413 405.991C181.413 404.811 180.38 403.779 179.2 403.779C178.02 403.779 176.988 404.811 176.988 405.991Z" fill="black" />
	<path d="M525.802 405.106C524.77 406.876 527.572 408.646 529.489 407.466C531.112 406.434 530.079 403.779 528.014 403.779C527.277 403.779 526.392 404.369 525.802 405.106Z" fill="black" />
	<path d="M105.603 411.743C103.096 415.578 104.423 417.643 108.258 416.168C110.765 415.283 111.65 408.204 109.29 408.204C108.553 408.204 106.93 409.826 105.603 411.743Z" fill="black" />
	<path d="M423.296 410.564C419.609 411.744 414.742 414.988 412.53 417.496C405.155 425.903 398.961 442.864 397.338 458.645C396.601 466.905 396.011 468.675 393.798 468.675C391.291 468.675 389.374 465.872 389.374 462.038C389.374 460.12 384.802 449.796 381.409 444.339C369.61 424.723 363.12 417.791 355.009 416.316C347.044 414.841 341.439 416.611 334.802 423.1C328.46 429.147 316.956 446.256 312.236 456.138C310.762 459.383 308.844 463.07 308.107 464.25C307.369 465.43 306.337 467.495 305.894 468.675C305.452 469.855 304.419 471.919 303.682 473.099C302.945 474.279 301.765 476.787 301.027 478.556C300.142 480.179 298.815 482.096 298.077 482.686C297.192 483.129 296.455 485.194 296.455 486.963C296.455 488.881 295.423 491.241 294.243 492.273C291.735 494.338 291.293 499.058 293.505 500.385C294.243 500.827 295.423 499.353 295.865 497.14C296.455 494.928 297.782 492.273 298.815 491.536C299.847 490.651 300.88 488.733 301.175 487.111C301.47 485.489 303.24 483.866 305.304 483.424C308.107 482.834 309.139 481.506 309.434 478.262C310.172 470.592 311.057 469.412 313.269 472.362C315.776 475.902 320.053 474.279 320.053 469.56C320.053 467.347 319.021 465.872 317.104 465.282C315.334 464.84 314.154 463.218 314.154 461.3C314.154 459.383 315.334 457.76 317.104 457.318C318.726 456.875 320.053 455.401 320.053 454.073C320.053 448.026 328.313 445.666 329.198 451.271C329.493 453.188 331.41 455.548 333.77 456.58C338.932 459.088 338.785 464.692 333.622 465.43C330.82 465.872 330.23 466.757 330.673 469.855C330.968 472.952 332 473.984 335.097 474.279C339.67 474.869 340.407 477.377 341.144 493.011C341.439 500.385 341.882 501.86 344.242 502.302C346.749 502.892 346.897 502.302 345.864 497.288C344.537 490.356 344.537 488.881 345.864 481.064C346.897 475.607 346.602 474.722 343.799 473.837C339.522 472.509 339.817 467.495 344.389 465.43C349.109 463.365 349.551 456.875 345.127 456.875C341.882 456.875 338.637 451.123 340.702 449.058C342.914 446.699 347.192 448.763 348.077 452.451C349.551 458.793 358.401 457.465 358.401 450.828C358.401 448.616 359.433 448.026 362.973 448.026C366.955 448.026 367.398 448.469 366.955 452.008C366.66 455.253 365.628 456.285 362.531 456.58C358.991 457.023 358.401 457.76 358.401 461.448C358.401 464.545 359.138 465.725 361.056 465.725C364.448 465.725 367.25 462.923 367.25 459.678C367.25 458.203 368.873 456.875 371.527 456.433C374.035 455.843 375.952 454.368 376.542 452.598C377.427 449.058 380.524 448.321 380.524 451.566C380.524 452.746 379.492 454.663 378.312 455.991C374.772 459.383 375.657 462.775 380.524 464.397C383.032 465.282 384.949 466.905 384.949 468.085C384.949 469.117 387.014 472.067 389.374 474.574C391.881 477.082 393.798 480.621 393.798 482.686C393.798 486.963 394.241 487.111 398.961 484.014C401.468 482.391 402.648 480.326 402.648 477.229C402.648 473.542 403.09 473.099 406.778 473.394C410.17 473.837 410.76 473.247 411.202 469.855C411.645 466.462 411.055 465.872 407.515 465.43C404.27 465.135 403.385 464.25 403.385 461.3C403.385 458.645 404.418 457.465 407.073 456.875C409.58 456.285 410.907 454.811 411.202 452.451C411.497 450.386 412.235 448.174 412.972 447.584C415.037 445.371 419.462 447.731 422.117 452.451C425.214 457.76 428.754 458.203 430.081 453.336C431.261 448.616 429.786 446.551 425.361 446.551C422.559 446.551 421.822 445.814 421.822 442.864C421.822 439.767 422.559 439.177 426.099 439.177C429.491 439.177 430.523 439.914 430.966 442.421C431.556 446.994 437.308 447.731 439.373 443.749C441.143 440.504 440.7 440.062 434.653 438.587C431.408 437.849 430.523 436.817 430.966 434.309C431.261 431.802 432.441 431.065 435.833 431.065C439.373 431.065 440.405 431.802 440.7 434.457C441.143 436.817 442.47 438.144 445.567 438.734C448.517 439.324 450.14 440.652 450.73 443.159C451.467 446.109 452.352 446.551 455.154 445.961C458.104 445.224 458.842 445.814 459.874 449.796C460.759 453.631 461.939 454.663 464.594 454.663C467.101 454.663 468.428 455.696 469.018 458.35C469.608 460.71 471.083 462.185 473.296 462.48C475.36 462.775 477.13 464.545 478.163 467.2C478.9 469.56 480.67 471.919 481.997 472.362C483.472 472.657 491.437 480.031 499.844 488.586C508.398 497.14 515.773 504.072 516.51 504.072C521.23 504.072 514.593 495.518 493.354 474.132C479.933 460.71 469.018 449.059 469.018 448.321C469.018 447.584 467.101 446.109 464.594 445.076C459.431 442.864 458.989 440.799 463.266 437.259C466.659 434.309 466.364 431.36 462.676 430.622C460.906 430.18 460.169 431.212 460.169 433.867C460.169 438.292 460.169 438.292 455.007 435.932C450.582 433.867 450.14 430.917 454.269 429.59C455.892 429.147 457.219 427.967 457.219 427.23C457.219 426.345 458.842 424.133 460.906 422.215L464.741 418.823L459.874 416.316C454.712 413.661 441.733 409.826 434.358 408.794C431.998 408.499 426.984 409.236 423.296 410.564ZM429.786 423.838C431.261 427.82 430.818 428.852 427.131 428.852C423.001 428.852 421.232 426.787 422.411 423.69C423.444 420.74 428.606 420.888 429.786 423.838ZM449.845 425.313C449.845 428.557 449.255 429 445.862 428.557C442.913 428.262 441.585 427.23 441.29 424.723C440.848 421.92 441.438 421.478 445.272 421.478C449.255 421.478 449.845 422.068 449.845 425.313ZM346.897 434.014C345.717 440.209 340.702 440.062 340.702 433.867C340.702 430.77 341.292 430.18 344.094 430.622C346.454 430.917 347.192 431.95 346.897 434.014ZM365.775 434.014C365.775 436.964 365.038 437.702 362.088 437.702C359.138 437.702 358.401 436.964 358.401 434.014C358.401 431.065 359.138 430.327 362.088 430.327C365.038 430.327 365.775 431.065 365.775 434.014ZM420.347 434.899C420.347 438.734 419.904 439.324 417.102 438.882C414.595 438.587 413.562 437.259 413.267 434.309C412.825 430.917 413.267 430.327 416.512 430.327C419.757 430.327 420.347 430.917 420.347 434.899ZM337.015 442.864C337.015 444.486 335.982 445.961 334.655 446.256C332 446.699 329.788 442.864 331.263 440.504C332.738 437.997 337.015 439.767 337.015 442.864ZM356.631 442.421C356.336 444.634 355.009 445.961 352.944 446.256C350.141 446.699 349.551 446.109 349.551 443.011C349.551 439.914 350.289 439.177 353.386 439.177C356.483 439.177 357.073 439.767 356.631 442.421ZM373.887 442.864C373.887 447.289 368.135 446.846 367.545 442.421C367.103 439.472 367.545 439.029 370.495 439.472C372.707 439.767 373.887 440.947 373.887 442.864ZM411.497 443.749C411.497 446.404 411.202 446.551 409.285 445.076C408.105 444.044 407.073 442.716 407.073 441.979C407.073 441.242 408.105 440.652 409.285 440.652C410.612 440.652 411.497 441.979 411.497 443.749Z" fill="black" />
	<path d="M185.837 414.841C185.837 416.168 186.575 417.053 187.46 416.758C188.345 416.463 189.082 415.578 189.082 414.841C189.082 414.103 188.345 413.218 187.46 412.923C186.575 412.628 185.837 413.513 185.837 414.841Z" fill="black" />
	<path d="M515.773 413.513C514.298 415.136 516.215 417.053 519.312 417.053C520.787 417.053 522.115 416.021 522.115 414.841C522.115 412.629 517.543 411.744 515.773 413.513Z" fill="black" />
	<path d="M535.536 413.956C534.062 414.988 534.062 415.431 535.389 416.316C536.274 416.906 537.749 416.758 538.634 415.873C540.551 413.956 538.044 412.481 535.536 413.956Z" fill="black" />
	<path d="M194.687 423.69C194.687 424.87 195.719 425.903 196.899 425.903C198.079 425.903 199.112 424.87 199.112 423.69C199.112 422.51 198.079 421.478 196.899 421.478C195.719 421.478 194.687 422.51 194.687 423.69Z" fill="black" />
	<path d="M466.364 423.985C466.659 425.46 469.313 427.82 472.411 429.295C475.803 431.065 477.868 433.13 477.868 434.899C477.868 436.374 478.31 437.702 478.9 437.702C481.26 437.702 489.667 434.015 489.667 432.982C489.667 432.245 486.57 430.327 482.735 428.41C478.753 426.64 475.065 424.28 474.475 423.248C473.885 422.363 471.673 421.478 469.608 421.478C466.806 421.478 465.921 422.215 466.364 423.985Z" fill="black" />
	<path d="M245.571 425.755C243.211 426.345 237.459 429 233.034 431.507C225.07 435.932 222.12 439.177 225.955 439.177C226.987 439.177 229.052 440.504 230.527 442.126C231.854 443.749 233.919 445.076 235.099 445.076C237.607 445.076 239.376 441.094 237.459 439.914C234.067 437.849 236.279 436.079 240.999 436.964C245.128 437.849 246.308 437.407 247.636 434.899C249.848 430.917 254.568 430.917 256.633 434.752C257.518 436.374 259.583 437.702 261.205 437.702C262.975 437.702 264.597 439.177 265.482 441.389C266.22 443.454 268.579 445.814 270.644 446.846C273.299 448.026 274.332 449.648 274.332 452.598C274.332 455.99 273.594 456.728 270.349 457.17C265.63 457.613 264.892 460.858 268.874 463.365C271.087 464.692 271.972 464.397 273.594 462.038C274.774 460.415 276.396 458.35 277.281 457.318C279.789 454.368 279.051 448.616 274.921 440.062C269.759 429 265.63 425.608 257.075 425.018C253.24 424.723 248.078 425.165 245.571 425.755Z" fill="black" />
	<path d="M513.56 427.23C514.15 429.147 516.215 429.59 516.363 427.82C516.363 427.23 515.625 426.492 514.74 426.05C513.708 425.755 513.118 426.345 513.56 427.23Z" fill="black" />
	<path d="M490.109 438.292C488.192 439.177 486.717 440.652 486.717 441.684C486.717 444.929 492.174 443.749 494.682 439.914C497.336 435.784 495.861 435.342 490.109 438.292Z" fill="black" />
	<path d="M162.387 455.548C148.08 470.002 142.77 477.524 147.343 477.524C148.965 477.524 172.563 451.861 172.563 449.943C172.563 449.648 174.628 447.436 177.136 445.224C179.643 442.864 180.97 440.652 180.233 440.062C179.495 439.619 171.383 446.551 162.387 455.548Z" fill="black" />
	<path d="M217.253 441.094C216.663 442.274 214.893 443.454 213.566 444.044C212.091 444.486 210.911 445.666 210.911 446.551C210.911 448.469 213.418 448.469 214.598 446.404C215.188 445.666 217.253 444.339 219.318 443.454C221.235 442.716 222.415 441.537 221.973 440.652C220.645 438.587 218.58 438.882 217.253 441.094Z" fill="black" />
	<path d="M247.783 441.242C247.783 443.601 251.765 445.519 253.83 444.191C256.633 442.569 255.158 439.177 251.47 439.177C249.258 439.177 247.783 440.062 247.783 441.242Z" fill="black" />
	<path d="M468.281 440.652C466.658 443.306 470.198 445.961 472.853 444.339C474.18 443.454 475.213 442.126 475.36 441.389C475.803 439.324 469.461 438.734 468.281 440.652Z" fill="black" />
	<path d="M442.618 447.879C440.11 449.501 441.143 454.516 444.24 455.106C445.567 455.401 447.485 454.221 448.222 452.598C449.55 450.238 449.402 449.353 447.19 448.174C445.715 447.436 443.65 447.289 442.618 447.879Z" fill="black" />
	<path d="M222.12 449.206C221.678 450.091 221.973 451.271 222.857 451.713C225.07 453.188 226.545 451.271 224.627 449.353C223.595 448.321 222.71 448.321 222.12 449.206Z" fill="black" />
	<path d="M239.229 450.533C239.524 452.303 240.999 453.188 243.359 453.188C248.668 453.188 248.226 448.911 242.916 448.321C239.524 447.879 238.786 448.321 239.229 450.533Z" fill="black" />
	<path d="M256.633 449.796C256.633 450.828 257.37 452.746 258.108 453.926C259.73 456.581 264.45 454.368 265.187 450.386C265.63 448.616 264.597 448.026 261.205 448.026C258.55 448.026 256.633 448.764 256.633 449.796Z" fill="black" />
	<path d="M477.868 450.976C477.868 453.188 478.605 453.926 480.522 453.631C481.85 453.336 483.03 452.156 483.03 450.976C483.03 449.796 481.85 448.616 480.522 448.321C478.605 448.026 477.868 448.763 477.868 450.976Z" fill="black" />
	<path d="M517.69 450.238C517.69 451.418 518.722 452.451 519.902 452.451C521.082 452.451 522.115 451.418 522.115 450.238C522.115 449.059 521.082 448.026 519.902 448.026C518.722 448.026 517.69 449.059 517.69 450.238Z" fill="black" />
	<path d="M534.061 456.728C531.702 458.203 533.177 461.3 536.274 461.3C537.454 461.3 538.339 461.89 538.339 462.628C538.339 463.808 546.303 468.675 548.221 468.675C549.253 468.675 543.353 460.415 540.551 458.055C537.159 455.106 536.864 454.958 534.061 456.728Z" fill="black" />
	<path d="M230.084 459.825C230.084 462.038 230.822 462.775 232.739 462.48C234.067 462.185 235.247 461.005 235.247 459.825C235.247 458.645 234.067 457.465 232.739 457.171C230.822 456.876 230.084 457.613 230.084 459.825Z" fill="black" />
	<path d="M321.528 459.53C321.528 463.512 324.626 466.02 326.985 464.102C330.378 461.153 329.345 456.875 325.216 456.875C322.708 456.875 321.528 457.613 321.528 459.53Z" fill="black" />
	<path d="M412.677 457.76C411.055 459.235 413.267 463.955 415.922 464.692C419.462 465.577 420.347 464.693 420.347 460.268C420.347 457.76 419.462 456.876 416.954 456.876C415.037 456.876 413.12 457.318 412.677 457.76Z" fill="black" />
	<path d="M433.031 458.203C431.703 460.268 433.621 464.25 435.833 464.25C438.045 464.25 439.963 460.268 438.635 458.203C438.193 457.465 437.013 456.875 435.833 456.875C434.653 456.875 433.473 457.465 433.031 458.203Z" fill="black" />
	<path d="M451.319 459.678C451.319 461.3 451.909 462.923 452.647 463.365C454.417 464.545 457.662 460.268 456.482 458.35C454.859 455.843 451.319 456.728 451.319 459.678Z" fill="black" />
	<path d="M278.461 464.84C275.806 466.757 274.774 473.099 276.986 473.099C277.724 473.099 278.904 474.574 279.789 476.344C281.264 479.589 281.264 479.589 282.296 475.312C282.738 472.804 282.738 469.117 282.148 466.905C281.116 463.513 280.674 463.218 278.461 464.84Z" fill="black" />
	<path d="M258.698 467.937C257.518 471.035 259.14 474.574 261.647 474.574C264.007 474.574 266.22 469.56 264.745 467.2C263.417 464.987 259.582 465.43 258.698 467.937Z" fill="black" />
	<path d="M349.551 470.297C349.551 474.132 349.994 474.722 352.944 474.279C355.303 473.984 356.336 472.657 356.631 469.707C357.073 466.315 356.631 465.725 353.386 465.725C350.141 465.725 349.551 466.315 349.551 470.297Z" fill="black" />
	<path d="M367.545 469.707C367.84 472.952 368.725 473.837 371.675 473.837C374.625 473.837 375.51 472.952 375.805 469.707C376.247 466.167 375.805 465.725 371.675 465.725C367.545 465.725 367.103 466.167 367.545 469.707Z" fill="black" />
	<path d="M422.264 468.085C421.232 470.887 425.214 475.312 427.574 473.984C428.459 473.394 429.196 471.329 429.196 469.265C429.196 466.757 428.459 465.725 426.246 465.725C424.624 465.725 422.854 466.757 422.264 468.085Z" fill="black" />
	<path d="M442.47 469.265C442.47 473.837 444.535 475.164 446.895 472.362C449.107 469.707 447.78 465.725 444.682 465.725C443.355 465.725 442.47 467.052 442.47 469.265Z" fill="black" />
	<path d="M242.179 468.822C242.474 469.707 243.359 470.297 244.096 470.297C244.833 470.297 245.718 469.707 246.013 468.822C246.308 467.937 245.423 467.2 244.096 467.2C242.769 467.2 241.884 467.937 242.179 468.822Z" fill="black" />
	<path d="M460.464 469.56C461.054 472.657 463.709 472.952 464.299 469.707C464.594 468.232 463.856 467.2 462.381 467.2C460.906 467.2 460.169 468.085 460.464 469.56Z" fill="black" />
	<path d="M222.12 471.477C221.53 472.214 221.678 473.984 222.12 475.312C222.858 477.229 223.3 477.376 224.332 475.754C225.07 474.722 225.66 472.952 225.66 471.919C225.66 469.855 223.3 469.56 222.12 471.477Z" fill="black" />
	<path d="M323.003 478.999C323.003 481.949 323.741 483.424 325.216 483.424C326.69 483.424 327.428 481.949 327.428 478.999C327.428 476.049 326.69 474.574 325.216 474.574C323.741 474.574 323.003 476.049 323.003 478.999Z" fill="black" />
	<path d="M359.433 475.459C358.843 476.049 358.401 478.114 358.401 480.031C358.401 482.981 359.138 483.571 361.793 483.129C364.153 482.834 365.038 481.654 365.038 478.999C365.038 475.459 361.646 473.247 359.433 475.459Z" fill="black" />
	<path d="M378.164 476.639C376.837 480.179 378.754 483.719 381.557 483.129C383.327 482.834 384.212 481.359 384.212 478.999C384.212 474.722 379.492 472.952 378.164 476.639Z" fill="black" />
	<path d="M415.037 476.639C413.857 479.884 415.479 483.866 417.839 482.981C418.724 482.686 419.609 480.916 419.609 478.999C419.609 475.017 416.364 473.247 415.037 476.639Z" fill="black" />
	<path d="M433.916 479.294C434.211 481.211 435.096 482.686 435.833 482.686C436.718 482.686 437.455 481.211 437.75 479.294C438.045 477.082 437.455 476.049 435.833 476.049C434.211 476.049 433.621 477.082 433.916 479.294Z" fill="black" />
	<path d="M269.464 478.409C268.284 479.589 269.612 481.949 271.529 481.949C272.267 481.949 272.857 480.916 272.857 479.736C272.857 477.524 271.087 476.787 269.464 478.409Z" fill="black" />
	<path d="M216.81 481.801C216.81 482.539 217.253 484.309 217.695 485.636C218.433 487.553 218.875 487.701 219.908 486.078C221.825 483.129 221.53 480.474 219.023 480.474C217.843 480.474 216.81 481.064 216.81 481.801Z" fill="black" />
	<path d="M257.223 485.636C256.19 490.061 257.518 494.338 259.582 493.01C261.5 491.831 261.5 483.866 259.582 482.686C258.845 482.244 257.813 483.571 257.223 485.636Z" fill="black" />
	<path d="M279.494 483.866C278.166 487.111 279.199 493.011 280.969 492.716C281.853 492.568 282.591 490.651 282.886 488.438C283.476 483.719 280.821 480.179 279.494 483.866Z" fill="black" />
	<path d="M314.744 487.111C314.301 488.291 314.301 489.913 314.891 490.798C316.514 493.453 318.578 492.421 318.578 488.586C318.578 484.604 316.071 483.571 314.744 487.111Z" fill="black" />
	<path d="M331.853 488.586C331.853 490.946 332.737 492.273 334.065 492.273C335.392 492.273 336.277 490.946 336.277 488.586C336.277 486.226 335.392 484.899 334.065 484.899C332.737 484.899 331.853 486.226 331.853 488.586Z" fill="black" />
	<path d="M350.141 487.111C348.961 490.061 350.731 492.273 354.124 492.273C357.221 492.273 357.811 489.323 355.156 486.668C352.796 484.309 351.174 484.456 350.141 487.111Z" fill="black" />
	<path d="M425.804 485.931C424.181 487.406 424.624 492.273 426.246 492.273C428.459 492.273 429.786 487.848 428.164 486.226C427.426 485.489 426.394 485.341 425.804 485.931Z" fill="black" />
	<path d="M369.02 488.881C369.758 492.716 374.625 493.158 374.625 489.471C374.625 487.258 373.74 486.373 371.527 486.373C369.463 486.373 368.725 487.111 369.02 488.881Z" fill="black" />
	<path d="M405.893 488.881C406.483 491.978 410.76 492.568 410.76 489.323C410.76 488.143 409.58 486.963 408.105 486.668C406.04 486.226 405.45 486.816 405.893 488.881Z" fill="black" />
	<path d="M387.899 489.323C387.899 490.061 388.784 490.798 389.964 490.798C391.144 490.798 392.618 490.061 393.061 489.323C393.503 488.438 392.618 487.848 390.996 487.848C389.226 487.848 387.899 488.438 387.899 489.323Z" fill="black" />
	<path d="M213.418 491.831C212.828 492.273 212.386 493.895 212.386 495.223C212.386 496.698 211.353 498.615 210.173 499.648C208.993 500.68 207.961 502.45 207.961 503.63C207.961 506.727 211.501 505.105 212.238 501.86C212.533 500.385 213.566 498.173 214.745 496.993C215.925 495.96 216.81 494.043 216.81 492.863C216.81 490.651 215.04 490.061 213.418 491.831Z" fill="black" />
	<path d="M359.433 494.78C358.843 495.223 358.401 496.993 358.401 498.468C358.401 500.385 359.433 501.122 362.088 501.122C366.07 501.122 366.955 498.468 364.005 495.518C361.941 493.453 360.761 493.305 359.433 494.78Z" fill="black" />
	<path d="M252.945 496.845C252.355 497.73 252.355 500.827 252.945 503.777C253.83 508.349 254.273 508.792 255.158 506.285C257.96 499.648 256.043 491.831 252.945 496.845Z" fill="black" />
	<path d="M305.304 498.173C305.304 499.795 306.337 501.122 307.517 501.122C308.697 501.122 309.729 499.795 309.729 498.173C309.729 496.55 308.697 495.223 307.517 495.223C306.337 495.223 305.304 496.55 305.304 498.173Z" fill="black" />
	<path d="M323.003 498.173C323.003 499.795 324.036 501.122 325.216 501.122C326.395 501.122 327.428 499.795 327.428 498.173C327.428 496.55 326.395 495.223 325.216 495.223C324.036 495.223 323.003 496.55 323.003 498.173Z" fill="black" />
	<path d="M378.312 496.698C377.722 497.73 377.87 499.058 378.754 499.943C380.819 502.007 385.392 500.238 384.654 497.73C383.769 495.37 379.639 494.633 378.312 496.698Z" fill="black" />
	<path d="M415.479 496.108C413.415 498.32 414.595 501.122 417.544 501.122C419.609 501.122 420.347 500.385 420.052 498.615C419.609 495.96 417.102 494.633 415.479 496.108Z" fill="black" />
	<path d="M395.716 498.468C396.011 499.5 397.191 500.385 398.223 500.385C399.256 500.385 400.435 499.5 400.878 498.468C401.173 497.435 400.14 496.698 398.223 496.698C396.306 496.698 395.273 497.435 395.716 498.468Z" fill="black" />
	<path d="M433.621 498.91C433.621 500.09 434.653 501.122 435.833 501.122C437.013 501.122 438.045 500.09 438.045 498.91C438.045 497.73 437.013 496.698 435.833 496.698C434.653 496.698 433.621 497.73 433.621 498.91Z" fill="black" />
	<path d="M279.936 505.547C279.051 508.202 284.656 518.969 286.278 517.936C288.195 516.756 287.901 508.497 285.983 508.497C284.951 508.497 283.476 507.317 282.443 505.99C281.116 504.22 280.526 504.072 279.936 505.547Z" fill="black" />
	<path d="M346.012 505.842C343.504 513.807 344.684 524.131 348.371 528.261C348.961 529.146 349.551 534.603 349.551 540.355C349.551 546.254 350.289 552.891 351.174 555.251C352.059 557.464 353.239 565.281 353.976 572.655C355.893 592.714 358.696 607.315 360.908 607.315C363.563 607.315 363.415 591.681 360.613 583.717C359.433 580.325 358.401 574.425 358.401 570.59C358.401 566.903 357.663 561.446 356.778 558.644C355.009 553.481 352.649 535.045 352.501 527.376C352.501 525.163 351.911 523.099 351.026 522.509C348.371 520.886 349.256 510.414 352.206 509.234C354.566 508.349 354.566 508.202 351.911 506.137C348.371 503.63 346.749 503.482 346.012 505.842Z" fill="black" />
	<path d="M363.858 511.004C363.268 511.447 362.826 513.512 362.826 515.429C362.826 520.296 366.365 518.969 366.955 513.954C367.398 510.119 365.923 508.792 363.858 511.004Z" fill="black" />
	<path d="M199.997 518.231C198.817 521.476 200.587 524.131 202.209 521.624C203.831 518.969 203.831 515.871 202.209 515.871C201.471 515.871 200.439 516.904 199.997 518.231Z" fill="black" />
	<path d="M248.816 516.904C248.226 517.346 247.783 519.854 247.783 522.361C247.783 524.868 246.751 528.261 245.571 529.736C244.391 531.358 243.359 534.16 243.359 536.078C243.359 537.995 242.474 541.387 241.294 543.6C240.261 545.812 238.934 550.384 238.344 553.924C237.459 559.529 237.754 560.266 239.966 559.823C241.441 559.529 242.916 557.464 243.359 554.956C243.949 552.449 245.129 549.057 246.013 547.287C247.046 545.517 247.783 541.83 247.783 539.175C247.931 536.52 248.816 532.685 249.996 530.62C253.535 524.278 252.651 513.069 248.816 516.904Z" fill="black" />
	<path d="M367.398 526.491C367.545 528.408 367.988 531.8 368.578 534.308L369.61 538.732L370.643 532.833C372.117 524.426 371.97 523.246 369.463 523.246C368.135 523.246 367.25 524.573 367.398 526.491Z" fill="black" />
	<path d="M195.572 526.933C194.392 530.325 194.392 532.095 196.014 532.095C197.932 532.095 199.407 527.376 197.932 525.901C197.047 525.016 196.162 525.458 195.572 526.933Z" fill="black" />
	<path d="M191.737 536.815C191.737 539.617 192.032 539.765 193.212 537.995C195.129 535.193 195.129 533.57 193.212 533.57C192.475 533.57 191.737 535.045 191.737 536.815Z" fill="black" />
	<path d="M372.412 547.287C371.232 551.859 372.412 556.284 374.625 554.956C376.395 553.776 376.542 548.319 374.772 545.517C373.592 543.747 373.15 544.19 372.412 547.287Z" fill="black" />
	<path d="M376.985 562.921C376.395 563.953 376.247 567.198 376.837 570.148C377.87 575.162 378.017 575.31 379.344 572.36C381.114 568.673 378.902 559.823 376.985 562.921Z" fill="black" />
</svg>
