<svg width="451" height="363" viewBox="0 0 451 363" fill="none" xmlns="http://www.w3.org/2000/svg">
	<path d="M144.004 0.852005C142.529 1.14699 141.349 2.17942 141.349 2.91687C141.349 4.68675 174.829 4.68675 175.862 2.91687C176.304 2.17942 175.714 1.14699 174.387 0.704515C171.732 -0.327915 147.838 -0.180425 144.004 0.852005Z" fill="black" />
	<path d="M127.337 5.86681C126.747 6.60426 124.83 7.93167 123.208 8.81661C114.358 12.6514 97.1019 26.0729 97.1019 29.1702C97.1019 29.9077 96.0694 31.2351 94.8895 32.2675C93.7096 33.3 92.6772 35.2173 92.6772 36.6922C92.6772 38.1671 91.6447 39.642 90.4648 40.232C89.2849 40.6745 88.2525 42.2968 88.2525 43.9192C88.2525 45.5416 87.515 47.0165 86.6301 47.3115C80.878 49.2289 77.0432 81.2342 81.4679 90.0836C82.7953 92.5909 83.8278 96.7207 83.8278 99.3755C83.8278 102.915 84.7127 104.39 87.515 105.718C90.6123 107.192 91.4972 107.045 92.2347 105.128C92.8246 103.653 92.0872 102.178 90.7598 101.293C89.2849 100.555 88.2525 98.4905 88.2525 96.7207C88.2525 94.9508 87.22 92.1485 86.0401 90.6736C82.9428 86.5439 83.0903 60.7331 86.0401 56.7509C87.22 55.1285 88.2525 52.7686 88.2525 51.2937C88.2525 49.9663 89.2849 48.049 90.4648 47.0165C91.6447 45.9841 92.6772 44.0667 92.6772 42.7393C92.6772 37.2822 118.34 13.0938 124.093 13.0938C125.272 13.0938 127.042 12.0614 128.075 10.8815C129.107 9.70155 131.467 8.66912 133.237 8.66912C135.007 8.66912 137.367 7.63669 138.399 6.45677C140.021 4.5394 139.432 4.24442 134.269 4.24442C130.877 4.24442 127.78 4.98187 127.337 5.86681Z" fill="black" />
	<path d="M180.434 5.71923C179.844 6.60417 181.466 7.6366 183.973 8.07907C186.481 8.66903 189.283 9.99644 190.168 11.0289C191.053 12.2088 192.823 13.0937 194.003 13.0937C196.658 13.0937 212.144 29.0227 212.144 31.825C212.144 32.8574 213.177 34.1848 214.356 34.6273C215.536 35.2172 216.569 37.1346 216.569 38.9045C216.569 42.2968 218.929 45.0991 220.404 43.6242C222.026 42.0018 218.929 32.1199 215.684 28.5802C213.766 26.5153 212.144 24.4505 212.144 24.008C212.144 22.2381 195.625 8.66903 193.265 8.66903C192.528 8.66903 191.053 7.6366 190.021 6.45668C187.956 3.94935 181.761 3.50688 180.434 5.71923Z" fill="black" />
	<path d="M300.933 14.8636C301.818 17.5184 305.063 17.9609 305.063 15.4536C305.063 14.1262 304.03 13.0937 302.703 13.0937C301.376 13.0937 300.638 13.8312 300.933 14.8636Z" fill="black" />
	<path d="M362.879 24.3029C363.026 25.6303 364.206 27.1052 365.239 27.5477C366.566 27.9901 367.156 27.2527 366.714 25.4828C366.566 24.1554 365.386 22.6805 364.354 22.238C363.026 21.7956 362.436 22.533 362.879 24.3029Z" fill="black" />
	<path d="M367.304 31.6774C367.451 33.0048 368.631 34.4797 369.663 34.9222C370.991 35.3647 371.581 34.6272 371.138 32.8573C370.991 31.5299 369.811 30.055 368.779 29.6125C367.451 29.1701 366.861 29.9075 367.304 31.6774Z" fill="black" />
	<path d="M372.318 40.6744C371.876 41.1169 371.433 48.0489 371.433 56.0134C371.433 68.55 371.876 70.7624 374.088 71.9423C376.448 73.2697 376.743 72.8272 376.153 68.9925C375.711 66.1902 376.448 63.5354 377.923 61.913C380.135 59.5531 380.135 59.1107 378.07 57.3408C376.595 56.1609 375.858 52.9161 375.858 48.3439C375.858 41.7068 374.531 38.6096 372.318 40.6744Z" fill="black" />
	<path d="M220.993 49.5237C220.993 50.9986 221.731 53.211 222.468 54.3909C223.501 56.0133 223.943 55.4233 223.943 51.7361C223.943 49.2287 223.353 47.0164 222.468 47.0164C221.731 47.0164 220.993 48.1963 220.993 49.5237Z" fill="black" />
	<path d="M38.8432 81.0865C37.3683 83.2989 38.9907 84.4788 41.793 83.2989C43.1204 82.8564 43.7104 81.824 43.2679 80.9391C42.088 79.0217 40.0232 79.0217 38.8432 81.0865Z" fill="black" />
	<path d="M393.262 80.3493C392.819 80.7917 395.622 84.479 399.604 88.4612C403.586 92.5909 406.831 97.0156 406.831 98.343C406.831 99.8179 408.011 102.62 409.338 104.538C413.173 109.995 413.173 144.802 409.486 150.702C408.011 152.767 406.831 156.159 406.831 158.077C406.831 160.141 405.799 162.501 404.619 163.534C403.439 164.566 402.406 166.041 402.406 166.778C402.406 170.171 387.215 188.017 382.495 190.229C380.873 190.967 378.513 192.147 377.333 192.884C372.171 195.981 363.616 198.931 360.372 198.931C355.504 198.931 355.799 200.996 361.699 208.223C370.253 218.99 372.318 230.789 366.861 237.869L363.911 241.703L371.728 245.243C376.006 247.308 381.61 250.995 384.265 253.798C388.395 258.075 388.985 259.845 389.28 267.367C389.575 274.004 389.132 276.363 387.215 277.838C383.97 280.198 383.97 280.493 389.132 286.245C392.819 290.228 393.557 292.292 393.557 298.782C393.557 307.779 389.87 315.891 383.233 321.348C378.218 325.478 377.628 327.248 381.315 327.248C382.79 327.248 386.92 324.003 390.607 320.021C398.277 311.761 402.259 301.437 399.604 296.57C397.244 292.145 397.539 284.918 400.194 283.885C401.374 283.443 402.406 281.673 402.406 280.051C402.406 277.691 401.374 277.101 397.834 277.101C393.557 277.101 393.409 276.806 393.852 271.644C394.147 267.219 395.032 266.039 397.982 265.302C403.439 263.974 403.144 257.337 397.687 256.747C394.294 256.305 393.557 255.567 393.557 252.175C393.557 248.635 392.819 247.75 389.132 247.013C385.15 246.276 384.707 245.538 384.707 240.966C384.707 236.246 385.002 235.804 389.132 235.804C393.262 235.804 393.557 236.246 393.557 240.966C393.557 245.686 393.852 246.128 397.834 246.128C400.784 246.128 402.554 245.243 403.144 243.326C404.471 238.754 402.406 235.804 397.687 235.804C393.704 235.804 393.409 235.509 393.852 231.084C394.294 226.954 395.032 226.069 398.719 225.479C401.964 224.889 403.291 223.857 403.586 221.202C404.176 217.22 401.816 215.155 396.802 215.155C393.852 215.155 393.409 214.418 393.852 211.025C394.147 207.928 395.179 206.896 398.277 206.601C405.356 205.716 405.651 194.507 398.719 194.507C391.787 194.507 392.377 188.754 399.456 186.1C402.849 184.772 403.881 183.445 403.881 180.642C403.881 177.545 404.619 176.808 407.568 176.808C412.288 176.808 414.943 172.088 412.583 168.253C411.551 166.631 411.256 164.271 411.846 162.796C412.731 160.289 413.026 160.289 415.533 162.649C418.483 165.304 423.055 164.419 423.055 161.174C423.055 159.994 421.432 158.371 419.368 157.634C414.648 155.864 414.353 148.932 418.63 145.097C422.17 142 422.465 138.018 419.368 135.511C416.565 133.151 416.565 129.021 419.368 124.596C421.432 121.499 421.432 120.909 418.63 117.369C417.008 115.304 415.68 111.765 415.68 109.552C415.68 107.34 414.648 104.39 413.468 103.063C412.141 101.588 410.961 97.9006 410.813 94.8033C410.518 89.7886 409.928 89.0512 406.831 88.6087C404.176 88.3137 402.554 86.8388 401.374 83.889C399.899 79.7593 395.622 77.9894 393.262 80.3493ZM393.262 200.111C393.704 204.683 393.557 204.978 389.575 204.536C386.477 204.241 385.297 203.208 385.002 200.554C384.413 196.866 386.92 194.212 390.607 194.949C391.935 195.096 392.967 197.161 393.262 200.111ZM382.495 210.73C382.495 213.385 381.61 214.565 379.103 214.86C375.563 215.45 373.498 212.205 374.973 208.371C375.416 207.043 377.186 206.306 379.103 206.601C381.61 206.896 382.495 208.076 382.495 210.73ZM393.557 221.055C393.557 225.037 393.114 225.479 389.132 225.479C385.15 225.479 384.707 225.037 384.707 221.055C384.707 217.073 385.15 216.63 389.132 216.63C393.114 216.63 393.557 217.073 393.557 221.055ZM380.873 226.364C382.2 226.807 383.233 228.872 383.233 230.789C383.233 233.591 382.495 234.329 379.545 234.329C375.121 234.329 373.203 230.789 375.858 227.692C377.923 225.184 377.775 225.184 380.873 226.364Z" fill="black" />
	<path d="M30.2889 84.9213C28.3716 86.6912 29.2565 88.3136 32.2063 88.3136C33.8287 88.3136 35.1561 87.2812 35.1561 86.1013C35.1561 83.8889 32.0588 83.004 30.2889 84.9213Z" fill="black" />
	<path d="M47.9877 89.1987C45.9228 91.2636 46.9552 92.886 49.905 92.4435C51.6749 92.1485 53.0023 91.2636 53.0023 90.5261C53.0023 88.7562 49.4626 87.8713 47.9877 89.1987Z" fill="black" />
	<path d="M37.221 94.9506C36.6311 96.1305 35.3036 97.1629 34.1237 97.1629C32.0589 97.1629 21.8821 107.192 21.8821 109.257C21.8821 109.995 20.8496 110.437 19.6697 110.437C18.4898 110.437 17.4574 111.027 17.4574 111.617C17.4574 112.354 15.54 114.862 13.0327 117.222C10.6728 119.581 8.60795 122.531 8.60795 123.859C8.60795 125.186 7.57552 126.661 6.3956 127.251C3.74078 128.283 3.29831 134.625 6.10062 133.74C6.98556 133.298 8.16548 131.823 8.46046 130.348C8.90293 127.693 10.0829 125.923 14.95 120.614C16.2774 119.139 17.4574 117.517 17.4574 117.074C17.4574 115.599 32.0589 101.588 33.3863 101.588C34.2712 101.588 35.1562 100.703 35.5986 99.5228C36.0411 98.3428 37.9585 97.1629 39.7284 96.8679C41.4982 96.573 43.2681 95.5405 43.7106 94.5081C44.5955 91.8533 38.2534 92.2957 37.221 94.9506Z" fill="black" />
	<path d="M312.732 98.7854C308.16 100.555 308.308 103.505 316.272 148.047C317.452 154.537 318.337 161.911 318.337 164.566C318.337 169.286 321.729 184.33 323.499 187.132C323.942 188.017 329.399 188.607 335.298 188.607C348.425 188.607 349.605 187.427 347.687 175.333C347.097 170.908 345.77 152.029 345.033 133.593C344.148 115.157 343.115 99.3754 342.673 98.6379C341.493 96.7205 317.305 96.868 312.732 98.7854Z" fill="black" />
	<path d="M263.766 103.948C257.719 104.98 252.556 105.865 252.409 105.865C251.376 106.16 252.114 115.157 253.589 118.697C254.916 122.531 258.161 156.307 258.456 170.171L258.603 176.07L250.491 176.955C246.067 177.398 240.61 178.283 238.545 178.872C235.3 179.757 234.415 179.315 232.94 175.628C231.908 173.12 230.728 159.699 230.138 143.77C229.4 126.956 228.368 115.747 227.336 114.714C226.303 113.682 220.846 113.534 209.047 114.419L192.233 115.599L192.38 122.236C192.675 136.985 195.92 183.74 196.658 186.1C197.248 187.279 198.133 199.521 198.575 213.238L199.607 238.016L214.946 237.721C224.533 237.574 231.023 236.689 232.35 235.509C234.12 234.034 234.415 230.199 234.12 214.565C233.53 193.032 232.793 194.359 246.657 191.704C257.719 189.639 260.373 190.967 261.258 199.226C261.553 202.766 262.733 211.173 263.913 217.957L265.83 230.199L271.878 229.462C279.989 228.429 299.458 225.184 301.965 224.594C303.588 224.004 303.735 222.087 302.998 215.45C302.408 210.878 301.376 198.046 300.638 187.132C299.901 176.218 298.573 163.681 297.836 159.256C296.951 154.979 296.213 148.342 296.213 144.507C296.213 140.82 295.181 133.003 294.001 127.398C292.821 121.646 291.789 114.419 291.789 111.027C291.789 107.782 291.051 104.39 290.019 103.358C287.806 101.145 278.22 101.293 263.766 103.948Z" fill="black" />
	<path d="M94.152 121.351C92.0871 122.384 88.1049 124.449 85.3026 125.924C77.4856 129.906 66.7188 142.147 61.9991 152.324C51.0849 175.775 53.1497 200.406 67.8987 220.612C77.6331 234.034 88.8423 241.408 106.099 245.538C115.243 247.75 116.865 247.75 128.075 245.538C148.723 241.261 160.522 231.821 169.519 212.205C176.009 198.194 178.221 180.2 174.682 169.876C173.354 166.041 172.322 161.911 172.322 160.436C172.322 156.896 165.685 143.18 160.522 136.1C157.425 131.823 147.691 124.891 141.496 122.384C133.974 119.287 99.1666 118.549 94.152 121.351ZM126.157 157.929C137.957 164.861 141.349 170.613 141.349 183.74C141.349 192.147 140.759 194.801 137.662 199.374C128.517 212.795 112.883 216.188 101.379 207.338C95.0369 202.471 94.7419 202.028 90.6122 192.589C85.745 181.232 89.4323 167.663 99.6091 159.404C106.836 153.504 117.455 152.914 126.157 157.929Z" fill="black" />
	<path d="M426.005 130.348C426.005 131.676 427.332 132.561 429.692 132.561C432.052 132.561 433.379 131.676 433.379 130.348C433.379 129.021 432.052 128.136 429.692 128.136C427.332 128.136 426.005 129.021 426.005 130.348Z" fill="black" />
	<path d="M0.348338 139.198C-0.831583 142.295 1.23328 145.245 2.85567 142.737C4.62555 139.935 4.47806 136.985 2.70818 136.985C1.82324 136.985 0.790808 138.018 0.348338 139.198Z" fill="black" />
	<path d="M426.89 148.195C423.645 151.439 424.677 153.947 429.102 153.947C431.904 153.947 432.642 153.209 432.642 150.407C432.642 145.982 430.134 144.95 426.89 148.195Z" fill="black" />
	<path d="M437.066 160.436C436.624 161.174 436.919 162.206 437.804 162.796C439.574 163.829 442.229 162.501 442.229 160.436C442.229 158.666 438.246 158.666 437.066 160.436Z" fill="black" />
	<path d="M427.037 167.663C425.267 167.958 424.53 169.286 424.825 171.351C425.415 175.923 432.494 175.923 433.084 171.498C433.527 168.106 431.314 166.631 427.037 167.663Z" fill="black" />
	<path d="M446.653 170.023C446.653 171.35 447.686 172.383 449.013 172.383C451.52 172.383 451.078 169.138 448.423 168.253C447.391 167.958 446.653 168.696 446.653 170.023Z" fill="black" />
	<path d="M415.68 181.232C415.68 185.214 416.123 185.804 419.073 185.362C421.432 185.067 422.317 183.887 422.317 181.232C422.317 178.577 421.432 177.398 419.073 177.103C416.123 176.66 415.68 177.25 415.68 181.232Z" fill="black" />
	<path d="M438.099 178.578C436.181 180.495 437.509 184.182 440.164 184.182C442.376 184.182 442.966 179.02 441.049 177.693C440.311 177.25 438.984 177.693 438.099 178.578Z" fill="black" />
	<path d="M405.651 187.427C402.259 190.819 403.586 194.506 408.158 194.506C413.468 194.506 414.943 192.589 412.731 188.607C410.961 185.214 408.306 184.772 405.651 187.427Z" fill="black" />
	<path d="M425.12 189.197C423.792 192.441 425.71 194.506 429.839 194.506C432.937 194.506 433.527 193.916 433.084 191.114C432.494 187.279 426.447 185.657 425.12 189.197Z" fill="black" />
	<path d="M415.975 199.963C416.565 204.683 418.483 205.568 422.317 202.766C424.677 200.996 424.825 200.406 423.202 198.341C422.17 197.014 419.958 195.981 418.335 195.981C416.123 195.981 415.533 196.866 415.975 199.963Z" fill="black" />
	<path d="M436.919 199.079C435.444 201.586 438.836 204.388 440.901 202.324C442.671 200.554 441.491 197.456 439.279 197.456C438.541 197.456 437.509 198.194 436.919 199.079Z" fill="black" />
	<path d="M330.136 202.914C322.172 206.158 320.254 218.99 326.744 225.774C334.856 234.181 349.31 229.609 349.31 218.4C349.31 207.338 339.428 199.374 330.136 202.914Z" fill="black" />
	<path d="M405.651 206.601C401.816 210.435 405.356 217.662 410.223 215.745C414.058 214.27 414.943 209.108 411.846 206.748C408.601 204.388 407.863 204.388 405.651 206.601Z" fill="black" />
	<path d="M426.005 207.78C423.055 209.55 425.857 214.417 429.839 214.417C433.084 214.417 434.559 209.403 431.609 207.633C429.102 206.011 428.659 206.011 426.005 207.78Z" fill="black" />
	<path d="M446.653 209.993C446.653 211.32 447.391 212.205 448.276 211.91C449.161 211.615 449.898 210.731 449.898 209.993C449.898 209.256 449.161 208.371 448.276 208.076C447.391 207.781 446.653 208.666 446.653 209.993Z" fill="black" />
	<path d="M415.68 221.055C415.68 225.037 416.123 225.627 419.073 225.184C421.432 224.889 422.317 223.709 422.317 221.055C422.317 218.4 421.432 217.22 419.073 216.925C416.123 216.482 415.68 217.072 415.68 221.055Z" fill="black" />
	<path d="M437.804 221.055C437.804 224.594 440.016 225.037 441.344 221.645C442.671 218.4 442.523 218.105 440.016 218.105C438.836 218.105 437.804 219.432 437.804 221.055Z" fill="black" />
	<path d="M405.061 229.314C403.586 232.411 403.734 233.296 405.504 234.476C408.306 236.246 408.748 236.099 411.846 233.886C414.058 232.264 414.353 231.379 412.878 228.724C410.518 224.447 407.126 224.594 405.061 229.314Z" fill="black" />
	<path d="M425.562 227.839C424.972 228.429 424.53 230.199 424.53 231.674C424.53 233.591 425.71 234.329 429.102 234.329C432.937 234.329 433.527 233.886 433.084 230.937C432.642 227.692 427.775 225.627 425.562 227.839Z" fill="black" />
	<path d="M446.948 231.231C447.538 233.149 449.603 233.591 449.751 231.821C449.751 231.231 449.013 230.494 448.128 230.051C447.096 229.756 446.506 230.346 446.948 231.231Z" fill="black" />
	<path d="M416.27 239.491C414.5 244.063 419.663 246.571 422.907 242.588C424.382 240.818 424.087 240.081 421.727 238.901C417.893 236.836 417.155 236.836 416.27 239.491Z" fill="black" />
	<path d="M437.361 239.638C436.034 241.113 437.656 243.178 440.164 243.178C441.344 243.178 442.229 242.146 442.229 240.966C442.229 238.754 439.131 237.869 437.361 239.638Z" fill="black" />
	<path d="M350.342 244.063C348.72 245.685 350.785 247.603 352.997 246.718C354.177 246.128 354.767 245.243 354.324 244.505C353.44 242.883 351.67 242.736 350.342 244.063Z" fill="black" />
	<path d="M405.651 251.585C405.946 254.535 406.831 255.715 409.043 255.715C413.616 255.715 413.173 248.488 408.601 247.898C405.651 247.455 405.209 247.898 405.651 251.585Z" fill="black" />
	<path d="M425.267 249.078C423.792 251.585 428.217 255.567 431.167 254.387C432.494 253.945 433.379 252.323 433.084 250.995C432.494 247.898 426.742 246.571 425.267 249.078Z" fill="black" />
	<path d="M335.446 253.208C335.151 253.798 335.298 255.272 336.036 256.452C337.068 258.075 338.101 258.222 340.018 257.042C344 254.535 344 252.028 339.87 252.028C337.953 252.028 335.888 252.618 335.446 253.208Z" fill="black" />
	<path d="M415.975 260.434C416.713 264.122 420.105 264.564 420.105 261.024C420.105 259.255 419.22 257.927 417.745 257.927C416.418 257.927 415.68 258.96 415.975 260.434Z" fill="black" />
	<path d="M37.5159 264.122C41.4981 268.989 46.9552 274.151 47.9877 274.151C48.4301 274.151 51.2325 276.068 54.3298 278.576C57.427 280.936 60.9668 283 62.1467 283C63.3266 283 65.0965 284.033 66.129 285.213C67.1614 286.393 69.5212 287.425 71.5861 287.425C73.5035 287.425 77.0432 288.458 79.4031 289.637C82.2054 291.112 87.3675 291.85 94.1521 291.702C100.494 291.555 105.361 292.145 106.689 293.325C108.459 294.8 109.196 294.505 110.523 291.407C111.408 289.342 113.621 287.278 115.391 286.835C119.373 285.803 128.075 277.838 128.075 275.183C128.075 271.201 126.305 271.644 118.045 276.953C108.311 283.443 96.0694 286.688 86.6301 285.36C69.8162 283.148 66.7189 282.558 65.6865 280.641C65.0965 279.461 62.8842 278.576 61.1143 278.576C59.1969 278.576 57.2795 277.543 56.6896 276.363C56.2471 275.183 55.2147 274.151 54.3298 274.151C52.4124 274.151 50.0525 272.381 43.268 265.597C37.6634 260.139 33.0912 258.96 37.5159 264.122Z" fill="black" />
	<path d="M226.303 265.154C225.713 266.039 225.861 267.957 226.746 269.284C228.073 271.791 228.221 271.791 229.253 269.284C230.433 266.187 227.778 262.647 226.303 265.154Z" fill="black" />
	<path d="M406.241 268.989C405.061 272.086 406.388 274.151 409.191 274.151C410.666 274.151 411.256 272.971 410.961 270.906C410.371 266.924 407.568 265.892 406.241 268.989Z" fill="black" />
	<path d="M415.68 280.788C415.68 281.968 417.008 283 418.63 283C420.252 283 421.58 281.968 421.58 280.788C421.58 279.608 420.252 278.576 418.63 278.576C417.008 278.576 415.68 279.608 415.68 280.788Z" fill="black" />
	<path d="M126.895 287.278C123.65 289.343 125.567 293.767 130.14 294.947C132.647 295.685 134.712 295.98 135.007 295.832C135.154 295.537 134.564 293.177 133.679 290.67C131.762 285.803 130.287 285.065 126.895 287.278Z" fill="black" />
	<path d="M234.268 290.965C234.268 293.03 233.678 295.095 232.793 295.537C232.055 295.98 231.318 298.045 231.318 300.109C231.318 302.027 230.58 303.649 229.695 303.649C228.81 303.649 225.418 306.009 222.321 308.811C219.076 311.614 215.536 313.973 214.504 313.973C209.637 313.973 210.374 319.431 215.979 324.888C219.076 328.133 220.551 327.838 223.353 323.56C225.418 320.463 225.418 319.431 223.796 317.513C222.173 315.596 222.468 315.448 226.303 316.186C233.825 317.808 234.268 318.251 234.268 322.085C234.268 324.15 235.3 326.215 236.48 326.658C239.577 327.985 243.117 324.593 243.117 320.463C243.117 314.711 249.459 315.743 253.294 322.085C254.916 324.888 257.129 327.248 258.308 327.248C260.963 327.248 263.766 324.15 263.766 321.2C263.766 318.546 266.568 316.923 271.14 316.923C273.205 316.923 274.09 318.251 274.385 321.643C274.68 325.773 275.417 326.51 278.515 326.51C281.612 326.51 282.349 325.773 282.644 321.643C283.087 317.366 282.792 316.923 279.252 316.923C276.155 316.923 275.417 316.333 276.155 314.563C276.597 313.236 277.04 311.909 277.04 311.614C277.04 309.549 281.464 311.614 282.202 313.973C282.939 316.186 284.414 316.923 288.249 316.923C292.379 316.923 293.559 316.186 294.739 313.089C296.656 308.221 302.555 308.664 303.293 313.531C303.735 316.481 303.145 316.923 299.311 316.923C295.771 316.923 294.739 317.513 294.739 319.726C294.739 328.28 299.606 329.755 302.408 322.085C303.883 317.661 304.915 316.923 308.013 317.218C310.372 317.513 312.437 319.136 313.617 321.643C315.977 326.805 320.254 326.953 323.499 321.938C325.416 318.841 326.891 318.251 330.284 318.693C333.676 319.283 334.561 318.841 334.266 317.071C333.823 315.153 331.464 314.563 323.204 314.268C313.027 313.826 312.437 313.678 306.685 307.779C300.786 302.027 300.491 301.879 295.918 303.797C292.821 304.977 285.004 305.714 274.827 305.862C259.783 305.862 258.161 305.567 252.409 301.879C249.164 299.667 244.002 295.537 241.2 292.587C235.3 286.393 234.268 286.245 234.268 290.965ZM242.38 311.761C242.38 315.448 241.79 316.186 238.692 316.186C235.595 316.186 234.858 315.448 234.563 311.319C234.12 306.746 234.268 306.451 238.25 306.894C241.79 307.336 242.38 308.074 242.38 311.761ZM262.291 312.351C264.356 316.333 264.356 316.333 258.603 316.481C254.621 316.628 253.441 316.038 253.441 314.121C253.441 308.811 259.636 307.631 262.291 312.351Z" fill="black" />
	<path d="M406.831 290.375C406.831 291.997 407.863 293.325 409.043 293.325C410.223 293.325 411.256 291.997 411.256 290.375C411.256 288.753 410.223 287.425 409.043 287.425C407.863 287.425 406.831 288.753 406.831 290.375Z" fill="black" />
	<path d="M115.243 300.109C114.063 303.059 117.161 306.304 119.225 304.239C120.995 302.469 119.668 297.749 117.603 297.749C116.866 297.749 115.833 298.782 115.243 300.109Z" fill="black" />
	<path d="M135.449 301.584C135.449 302.912 136.629 304.239 138.104 304.682C139.579 304.977 141.939 307.336 143.414 309.696C144.741 312.056 147.839 315.006 150.198 316.186C152.558 317.366 154.918 319.725 155.36 321.495C156.245 324.15 157.13 324.445 164.21 323.56C170.109 322.823 172.912 323.118 175.272 324.74C178.369 326.952 182.646 326.658 182.646 324.445C182.646 323.708 178.516 322.085 173.502 320.61C159.785 316.481 144.299 307.631 141.349 302.174C139.432 298.634 135.449 298.192 135.449 301.584Z" fill="black" />
	<path d="M127.042 309.106C123.503 310.434 124.978 313.973 128.96 313.973C131.615 313.973 132.647 313.236 132.205 311.466C131.762 308.811 129.845 307.926 127.042 309.106Z" fill="black" />
	<path d="M105.951 311.761C105.951 312.941 106.984 313.973 108.164 313.973C109.344 313.973 110.376 312.941 110.376 311.761C110.376 310.581 109.344 309.549 108.164 309.549C106.984 309.549 105.951 310.581 105.951 311.761Z" fill="black" />
	<path d="M115.686 319.578C115.243 320.463 115.538 321.643 116.423 322.085C118.635 323.56 120.11 321.643 118.193 319.726C117.16 318.693 116.276 318.693 115.686 319.578Z" fill="black" />
	<path d="M136.924 321.348C136.924 322.97 137.957 324.298 139.137 324.298C140.316 324.298 141.349 322.97 141.349 321.348C141.349 319.725 140.316 318.398 139.137 318.398C137.957 318.398 136.924 319.725 136.924 321.348Z" fill="black" />
	<path d="M196.215 320.758C192.528 323.265 192.085 325.183 194.888 326.215C197.69 327.247 206.244 322.823 206.244 320.463C206.244 317.661 200.345 317.808 196.215 320.758Z" fill="black" />
	<path d="M185.006 324.15C184.563 324.888 184.416 326.51 184.858 327.837C185.301 329.165 185.891 331.23 186.333 332.557C187.513 336.392 191.791 331.967 191.201 327.395C190.758 323.56 186.628 321.348 185.006 324.15Z" fill="black" />
	<path d="M336.331 324.15C336.921 326.068 338.986 326.51 339.133 324.74C339.133 324.15 338.396 323.413 337.511 322.97C336.478 322.675 335.888 323.265 336.331 324.15Z" fill="black" />
	<path d="M205.507 328.722C204.327 330.64 207.424 334.622 210.079 334.622C211.259 334.622 212.144 333.147 212.144 330.935C212.144 328.28 211.407 327.247 209.342 327.247C207.719 327.247 205.949 327.985 205.507 328.722Z" fill="black" />
	<path d="M225.418 330.935C225.418 335.212 230.433 336.244 231.908 332.262C233.088 329.165 231.76 327.247 228.221 327.247C226.156 327.247 225.418 328.28 225.418 330.935Z" fill="black" />
	<path d="M244.002 328.575C242.38 331.23 244.887 334.622 248.427 334.622C251.229 334.622 251.966 333.884 251.966 330.935C251.966 327.985 251.229 327.247 248.427 327.247C246.362 327.247 244.444 327.837 244.002 328.575Z" fill="black" />
	<path d="M265.24 330.787C265.24 335.654 267.01 336.539 270.845 333.737C275.565 330.492 274.975 327.248 269.665 327.248C265.978 327.248 265.24 327.838 265.24 330.787Z" fill="black" />
	<path d="M285.447 328.132C284.119 329.607 287.217 334.622 289.429 334.622C291.494 334.622 293.559 329.46 292.084 328.132C291.051 326.952 286.627 327.1 285.447 328.132Z" fill="black" />
	<path d="M305.358 330.492C305.653 332.41 306.833 333.885 308.013 333.885C309.193 333.885 310.372 332.41 310.667 330.492C311.11 327.985 310.372 327.248 308.013 327.248C305.653 327.248 304.915 327.985 305.358 330.492Z" fill="black" />
	<path d="M325.121 328.575C324.089 330.197 329.251 334.917 330.579 333.59C331.169 333.147 331.611 331.377 331.611 329.902C331.611 327.1 326.596 326.068 325.121 328.575Z" fill="black" />
	<path d="M344.885 329.607C344.885 331.525 372.023 331.525 373.793 329.755C375.121 328.575 375.563 328.575 358.602 328.28C349.162 327.985 344.885 328.427 344.885 329.607Z" fill="black" />
	<path d="M217.159 338.162C215.979 341.259 217.601 345.389 219.519 344.209C220.256 343.766 220.994 341.996 220.994 340.522C220.994 336.834 218.339 335.212 217.159 338.162Z" fill="black" />
	<path d="M256.981 338.162C255.801 341.259 257.424 345.389 259.341 344.209C260.078 343.766 260.816 341.996 260.816 340.522C260.816 336.834 258.161 335.212 256.981 338.162Z" fill="black" />
	<path d="M235.005 339.047C234.415 340.079 234.563 341.407 235.448 342.292C237.512 344.356 242.085 342.586 241.347 340.079C240.462 337.719 236.332 336.982 235.005 339.047Z" fill="black" />
	<path d="M275.565 340.374C275.565 343.619 279.842 345.684 281.907 343.619C284.119 341.407 281.907 337.572 278.515 337.572C276.597 337.572 275.565 338.604 275.565 340.374Z" fill="black" />
	<path d="M296.213 340.522C296.213 342.144 297.246 343.471 298.426 343.471C299.606 343.471 300.638 342.144 300.638 340.522C300.638 338.899 299.606 337.572 298.426 337.572C297.246 337.572 296.213 338.899 296.213 340.522Z" fill="black" />
	<path d="M186.481 348.929C184.711 350.698 185.596 353.796 187.808 353.796C188.988 353.796 190.021 352.911 190.021 351.731C190.021 349.224 187.956 347.601 186.481 348.929Z" fill="black" />
	<path d="M206.982 349.224C205.802 351.436 207.424 353.796 210.079 353.796C211.407 353.796 212.144 352.763 211.849 351.288C211.259 348.339 208.309 347.159 206.982 349.224Z" fill="black" />
	<path d="M225.861 350.256C224.828 353.058 226.156 354.386 229.105 353.353C231.908 352.173 231.908 349.961 229.105 348.781C227.778 348.339 226.451 348.929 225.861 350.256Z" fill="black" />
	<path d="M246.509 348.929C242.97 350.256 244.444 353.796 248.427 353.796C251.081 353.796 252.114 353.058 251.671 351.288C251.229 348.634 249.312 347.749 246.509 348.929Z" fill="black" />
	<path d="M266.273 348.929C264.208 350.846 265.241 353.796 267.895 353.796C271.73 353.796 272.91 352.173 270.993 349.814C269.075 347.749 267.748 347.454 266.273 348.929Z" fill="black" />
	<path d="M287.364 350.698C287.364 352.468 288.249 353.796 289.724 353.796C291.051 353.796 291.789 352.763 291.494 351.288C290.756 347.601 287.364 347.159 287.364 350.698Z" fill="black" />
	<path d="M306.095 348.928C305.505 349.371 305.063 350.698 305.063 351.878C305.063 354.09 308.898 354.533 310.077 352.468C311.11 350.846 307.423 347.601 306.095 348.928Z" fill="black" />
	<path d="M327.186 351.583C327.186 352.763 328.219 353.796 329.399 353.796C330.579 353.796 331.611 352.763 331.611 351.583C331.611 350.404 330.579 349.371 329.399 349.371C328.219 349.371 327.186 350.404 327.186 351.583Z" fill="black" />
	<path d="M257.129 359.843C255.654 362.055 257.571 363.53 259.488 361.613C260.521 360.58 260.521 359.695 259.636 359.105C258.751 358.663 257.571 358.958 257.129 359.843Z" fill="black" />
</svg>
