<svg width="622" height="427" viewBox="0 0 622 427" fill="none" xmlns="http://www.w3.org/2000/svg">
	<path d="M437.786 1.4749C437.786 2.21235 440.884 5.45713 444.866 8.40693C460.5 20.7961 484.246 44.837 495.16 59.291C499.29 64.7481 502.682 69.6153 502.682 70.0578C502.682 71.8276 509.172 79.6446 510.794 79.6446C511.827 79.6446 512.416 76.5473 512.416 71.5327C512.269 63.7157 512.121 63.4207 508.434 63.4207C504.452 63.4207 502.682 61.0609 502.682 56.0462C502.682 54.4238 501.06 52.8014 498.257 51.769C495.898 51.0315 493.833 49.7041 493.833 48.9667C493.833 45.8694 454.6 8.8494 451.208 8.8494C450.323 8.8494 449.586 8.25944 449.586 7.52199C449.586 6.19458 440.589 0 438.671 0C438.229 0 437.786 0.58996 437.786 1.4749Z" fill="black" />
	<path d="M520.676 76.5472C520.971 77.5797 521.708 78.3171 522.298 78.3171C524.068 78.1696 523.626 76.1047 521.856 75.3673C520.823 75.0723 520.234 75.6623 520.676 76.5472Z" fill="black" />
	<path d="M529.82 85.6917C528.345 88.199 531.738 91.0014 533.803 88.9365C535.573 87.1666 534.393 84.0693 532.18 84.0693C531.443 84.0693 530.41 84.8068 529.82 85.6917Z" fill="black" />
	<path d="M389.852 87.609C361.387 93.3611 337.051 118.729 328.496 151.177C324.072 168.434 325.399 185.247 332.479 199.554C333.658 201.914 334.543 204.716 334.543 205.749C334.543 206.781 335.576 207.961 336.756 208.551C337.936 208.993 338.968 210.321 338.968 211.501C338.968 215.63 353.57 228.167 365.074 233.919L376.578 239.524H396.047C410.206 239.524 416.99 238.934 421.12 237.164C424.217 235.837 429.379 233.772 432.624 232.297C435.869 230.969 441.031 227.725 444.128 224.922L449.733 220.055L451.945 193.359C453.125 178.758 454.01 163.566 453.715 159.732L453.273 152.652L444.423 151.767C439.556 151.177 426.872 150.735 416.253 150.587L396.932 150.44L395.309 161.797C394.277 168.139 393.539 174.038 393.539 175.071C393.539 176.103 397.817 177.135 404.601 177.725C417.285 178.905 420.53 181.56 418.76 188.492C417.875 191.59 415.958 193.064 410.353 195.129C399.881 199.112 389.557 196.752 381.15 188.197C371.858 178.905 369.646 167.844 373.776 151.177C376.136 141.738 393.834 124.039 401.209 123.892C402.684 123.892 406.814 123.154 410.353 122.122C415.515 120.794 419.055 120.794 427.315 122.417C433.657 123.597 438.376 123.892 439.114 123.007C439.851 122.269 440.736 115.485 441.179 107.963C442.064 94.5411 441.916 94.2461 438.229 91.8862C431.444 87.4615 403.126 84.9542 389.852 87.609Z" fill="black" />
	<path d="M307.995 90.7062C303.571 91.8861 294.869 92.7711 288.822 92.9185C282.774 92.9185 276.875 93.5085 275.695 94.246C273.63 95.5734 271.123 101.325 267.288 114.305C266.108 118.287 264.486 123.596 263.748 126.104C263.011 128.464 261.093 135.101 259.324 140.853C257.701 146.457 255.194 154.422 254.014 158.552C252.686 162.534 251.359 168.138 250.917 170.793C250.474 173.448 249.589 175.955 248.704 176.398C246.787 177.578 241.625 172.711 241.625 169.613C241.625 168.286 240.592 165.926 239.412 164.304C238.232 162.829 237.2 160.174 237.2 158.404C237.2 156.782 236.463 154.717 235.578 153.832C234.693 152.947 233.513 149.997 232.775 147.342C230.71 139.23 226.286 127.284 221.566 117.549C220.386 115.19 219.501 112.387 219.501 111.355C219.501 110.322 217.879 108.11 215.814 106.488C212.717 104.128 211.094 103.833 206.522 104.865C203.572 105.603 197.23 106.193 192.658 106.193C184.989 106.193 168.47 109.437 166.7 111.355C166.257 111.797 166.7 118.582 167.732 126.546C168.617 134.658 170.092 152.652 170.829 166.811C171.714 180.97 172.894 195.719 173.632 199.849C174.517 203.831 175.254 214.893 175.402 224.185C175.549 233.477 175.992 243.063 176.582 245.571C177.614 250.585 178.057 250.585 204.752 248.226L218.764 247.046L219.206 238.934C219.501 234.509 218.764 222.12 217.436 211.648C213.897 180.528 213.159 166.221 215.224 166.959C216.256 167.254 217.584 168.581 218.026 169.761C219.354 172.268 223.631 182.15 226.138 188.05C227.171 190.409 228.793 194.392 229.826 196.899C230.858 199.259 232.185 203.684 232.775 206.486C234.103 212.533 236.61 219.612 240.592 228.167C242.805 233.329 244.132 234.509 247.229 234.509C254.014 234.509 257.996 229.789 259.471 220.055C260.356 213.27 262.126 205.306 265.961 190.999C270.533 173.596 271.713 168.581 272.303 162.681C272.598 159.289 273.778 155.749 274.81 154.864C278.645 151.62 280.267 157.519 281.595 181.708C282.332 194.982 283.512 208.403 284.397 211.648C285.134 214.893 285.872 223.152 285.872 230.084C285.872 246.456 286.314 247.046 296.344 244.981C300.768 244.096 307.995 243.063 312.567 242.621C326.284 241.146 326.579 240.704 325.989 219.465C325.694 208.551 324.662 200.144 323.629 198.374C322.597 196.752 320.974 190.704 319.794 184.805C317.877 173.891 318.32 161.649 321.564 146.015C322.449 141.59 323.334 127.431 323.334 114.6C323.482 86.2815 323.924 86.8715 307.995 90.7062Z" fill="black" />
	<path d="M475.544 89.6739C474.069 92.0337 471.857 126.104 471.709 147.49C471.562 157.667 470.972 171.236 470.234 177.725C469.349 186.28 469.497 189.967 470.677 191.294C471.709 192.327 478.641 193.507 487.196 194.097L501.945 195.129L504.599 184.215C505.927 178.168 507.107 169.908 507.107 165.631C507.107 161.502 508.139 152.8 509.319 146.458C510.499 140.115 511.531 132.593 511.531 129.644C511.531 126.694 512.416 121.679 513.449 118.582C516.104 111.207 517.579 94.0986 515.956 91.5912C514.334 88.9364 477.019 87.1665 475.544 89.6739Z" fill="black" />
	<path d="M541.767 97.3434C540.587 99.4083 542.209 101.768 544.864 101.768C546.044 101.768 546.929 100.441 546.929 98.8183C546.929 95.7211 543.389 94.6886 541.767 97.3434Z" fill="black" />
	<path d="M525.838 102.801C523.478 105.013 525.101 109.585 535.277 130.086C538.522 136.428 546.929 161.797 546.929 165.041C546.929 166.369 547.962 170.056 548.994 173.301C553.861 187.312 553.124 224.332 547.667 238.934C542.357 253.093 526.576 268.874 509.319 277.281C505.632 279.051 502.387 281.116 501.797 281.853C501.355 282.591 499.437 283.181 497.668 283.181C495.75 283.181 493.39 284.066 492.505 285.246C491.62 286.426 488.966 287.606 486.753 288.048C484.541 288.491 479.526 289.965 475.397 291.145C471.414 292.473 465.072 294.095 461.385 295.128C457.698 296.013 452.831 297.34 450.323 298.225C447.963 298.962 443.096 300.29 439.556 301.175C433.952 302.502 432.919 303.387 429.527 310.172C427.462 314.449 424.512 320.201 422.743 323.003C421.12 325.805 418.318 330.82 416.695 334.065C414.926 337.31 410.648 344.094 407.256 349.256C403.716 354.419 400.914 358.991 400.914 359.286C400.914 360.318 387.935 377.574 384.838 380.672C383.51 381.999 376.578 389.816 369.204 398.076C361.977 406.335 353.127 414.742 349.735 416.807C345.605 419.167 343.393 421.527 343.393 423.296C343.393 427.131 345.753 426.984 348.85 423.296C350.325 421.674 351.8 420.347 352.39 420.347C353.717 420.347 362.124 413.12 366.106 408.695C367.876 406.777 373.333 401.025 378.496 396.158C386.165 388.784 396.932 376.247 404.601 365.923C405.339 364.89 407.994 361.941 410.501 359.286C412.861 356.778 414.926 353.534 415.221 352.059C415.516 350.584 416.843 347.781 418.17 345.717L420.678 341.882L423.038 345.127C425.545 348.519 427.462 347.781 427.462 343.357C427.462 341.882 426.43 340.702 425.25 340.702C421.71 340.702 422.595 336.572 428.2 327.28C431.739 321.676 434.542 318.578 436.754 318.283C439.261 317.988 440.146 316.661 440.736 312.679C441.326 308.107 442.064 307.517 446.783 306.632C449.881 306.189 453.273 304.714 454.748 303.387C457.993 299.995 460.943 300.29 462.86 303.829C464.482 306.779 469.497 307.664 472.594 305.599C473.627 305.009 474.659 302.945 474.807 300.88C475.249 298.077 476.429 297.045 479.674 296.75C482.034 296.455 484.836 295.275 486.016 294.095C488.818 291.293 496.193 291.44 497.373 294.243C499.29 299.257 507.107 295.57 507.107 289.67C507.107 287.458 508.287 285.983 510.352 285.246C512.122 284.656 515.809 282.001 518.464 279.346C521.118 276.544 524.068 274.331 525.101 274.331C526.133 274.331 528.64 272.562 530.558 270.644C534.982 265.924 537.49 265.925 538.67 270.792C539.407 273.741 540.44 274.479 543.684 274.036C548.847 273.447 550.321 266.367 545.602 264.745C542.062 263.712 541.325 257.518 544.569 255.6C545.602 255.01 547.962 252.208 549.584 249.406C551.206 246.751 554.156 243.801 556.074 242.769C560.203 240.704 561.236 235.689 557.991 233.034C555.189 230.674 555.189 225.66 557.991 221.825C559.171 220.35 560.203 216.81 560.203 214.156C560.203 209.878 560.646 209.436 564.628 209.436C567.43 209.436 569.495 208.551 570.085 207.076C571.56 203.241 568.463 199.849 564.038 200.291C560.498 200.586 560.203 200.291 560.203 195.572C560.203 192.769 559.613 190.115 558.876 189.672C556.664 188.197 556.221 179.938 558.138 177.283C560.941 173.743 560.793 173.153 555.631 167.991C550.469 162.682 550.321 157.814 555.484 155.602C561.826 152.8 557.401 145.868 550.764 148.375C548.847 149.112 548.404 148.227 548.404 144.098C548.404 141.148 547.667 138.346 546.929 137.903C544.569 136.428 539.26 125.219 540.292 124.187C540.882 123.597 541.915 123.007 542.652 123.007C543.389 122.859 544.717 122.712 545.454 122.564C547.814 122.269 547.224 115.042 544.864 115.042C543.684 115.042 542.209 115.632 541.767 116.517C540.145 119.172 535.13 118.14 535.13 115.19C535.13 113.567 535.867 111.797 536.605 111.355C539.26 109.733 538.227 107.963 532.77 104.865C526.871 101.326 527.166 101.473 525.838 102.801Z" fill="black" />
	<path d="M552.386 107.078C550.469 108.995 551.354 110.618 554.451 110.618C556.074 110.618 557.254 109.88 556.959 108.848C556.221 106.783 553.714 105.75 552.386 107.078Z" fill="black" />
	<path d="M565.365 116.665C564.775 117.549 564.923 118.877 565.808 119.762C566.693 120.647 567.43 120.352 568.02 118.877C569.053 116.222 566.693 114.305 565.365 116.665Z" fill="black" />
	<path d="M90.4474 123.744C74.8135 125.956 51.6576 142.475 44.2831 156.487C42.5132 160.027 40.4483 164.009 39.7109 165.189C31.009 181.118 31.8939 216.368 41.3333 233.329C43.8406 237.901 53.28 249.848 54.7549 250.438C55.3448 250.733 57.9996 252.945 60.6545 255.305C65.2266 259.435 69.0614 261.647 83.8104 267.842C96.937 273.446 130.86 270.497 140.004 262.975C141.184 261.942 142.806 261.057 143.396 261.057C145.609 261.057 161.98 247.488 161.98 245.718C161.98 244.538 163.013 242.916 164.192 241.883C167.142 239.524 167.142 216.22 164.192 188.05C163.013 176.693 161.98 162.681 161.98 157.077C161.98 146.752 161.98 146.605 155.786 140.705C148.706 134.068 143.249 130.381 134.989 126.546C128.5 123.597 102.689 121.974 90.4474 123.744ZM116.111 166.664C127.467 172.416 135.432 187.017 135.432 202.209C135.432 212.091 132.335 219.76 125.55 225.807C117.438 233.329 114.488 234.509 104.459 234.509C95.4621 234.509 94.4297 234.214 87.9401 228.609C84.2529 225.365 79.2382 219.465 77.1733 215.63C73.7811 209.731 73.1911 206.928 73.0436 196.899C72.8961 186.722 73.4861 184.362 76.7309 179.2C80.8606 172.563 83.2204 170.498 90.1525 166.516C96.642 162.829 108.884 162.976 116.111 166.664Z" fill="black" />
	<path d="M551.354 129.791C551.354 131.709 552.386 132.741 554.009 132.741C557.843 132.741 559.023 131.119 557.106 128.759C554.599 125.809 551.354 126.399 551.354 129.791Z" fill="black" />
	<path d="M573.477 130.529C573.477 131.709 574.51 132.741 575.69 132.741C576.87 132.741 577.902 131.709 577.902 130.529C577.902 129.349 576.87 128.316 575.69 128.316C574.51 128.316 573.477 129.349 573.477 130.529Z" fill="black" />
	<path d="M562.563 138.493C561.088 140.853 563.301 144.54 566.25 144.54C568.315 144.54 569.053 143.508 569.053 140.853C569.053 138.198 568.315 137.166 566.25 137.166C564.628 137.166 563.006 137.756 562.563 138.493Z" fill="black" />
	<path d="M574.51 149.997C572.592 151.767 573.477 154.864 575.69 154.864C576.87 154.864 577.902 153.537 577.902 151.915C577.902 148.965 576.28 148.08 574.51 149.997Z" fill="black" />
	<path d="M561.973 162.534C562.563 166.664 568.168 167.991 569.643 164.451C570.97 160.912 569.495 159.289 565.218 159.289C562.121 159.289 561.531 159.879 561.973 162.534Z" fill="black" />
	<path d="M582.917 160.912C582.474 161.797 582.769 163.271 583.507 164.009C585.424 165.926 590.144 162.829 588.816 160.617C587.784 158.847 584.244 158.994 582.917 160.912Z" fill="black" />
	<path d="M574.51 170.646C572.592 172.416 573.477 176.988 575.542 176.988C578.344 176.988 579.672 174.923 578.492 171.973C577.46 169.466 576.132 169.024 574.51 170.646Z" fill="black" />
	<path d="M562.12 180.97C559.023 182.15 559.908 185.837 563.595 187.165C567.43 188.787 571.412 185.837 570.085 182.298C569.2 179.938 565.808 179.348 562.12 180.97Z" fill="black" />
	<path d="M582.327 183.625C582.327 185.395 583.359 185.837 586.014 185.542C588.079 185.247 589.849 184.363 589.849 183.625C589.849 182.74 588.079 182.003 586.014 181.708C583.359 181.413 582.327 181.855 582.327 183.625Z" fill="black" />
	<path d="M573.477 194.687C573.477 198.374 574.067 199.259 576.132 198.817C577.755 198.522 578.64 197.047 578.64 194.687C578.64 192.327 577.755 190.852 576.132 190.557C574.067 190.115 573.477 191 573.477 194.687Z" fill="black" />
	<path d="M596.191 192.327C595.601 193.654 595.601 195.277 596.191 195.719C596.633 196.309 597.961 195.867 598.846 194.982C600.173 193.654 600.173 192.769 598.846 191.442C597.518 190.115 596.928 190.41 596.191 192.327Z" fill="black" />
	<path d="M15.2275 197.489C-0.406457 227.872 -2.61881 238.196 2.39585 256.927C5.49314 268.874 18.9147 281.853 37.646 291.145C55.6398 299.995 57.7046 300.879 81.598 307.517C86.4652 308.991 91.1849 310.614 91.9223 311.204C92.8072 311.794 98.1169 312.826 103.722 313.269C109.474 313.859 118.028 315.333 122.895 316.366C127.762 317.546 134.399 318.726 137.644 318.873C142.806 319.316 143.544 319.758 143.986 323.298C144.429 327.28 144.281 327.428 137.497 327.428C132.63 327.428 129.975 326.69 128.795 324.92C127.467 323.15 125.108 322.561 120.535 322.708C103.132 323.593 95.757 327.428 111.686 327.428C123.19 327.428 129.827 328.903 128.942 331.115C128.647 332.147 129.09 333.77 129.975 334.655C132.335 337.015 139.414 336.72 140.447 334.065C140.889 332.737 143.249 331.852 146.494 331.852C151.066 331.852 151.656 332.295 151.656 335.54C151.656 339.817 153.131 340.112 159.178 336.867C164.93 333.917 164.045 331.557 156.67 329.935C149.591 328.46 148.116 327.133 149.443 323.15C150.623 319.463 157.703 319.021 163.455 322.118C165.815 323.593 169.65 323.888 174.959 323.445C179.974 322.855 183.956 323.298 186.463 324.478C189.266 326.1 190.446 326.1 191.773 324.773C193.985 322.561 203.572 322.561 208.439 324.773C211.537 326.1 213.012 326.1 215.224 324.773C218.764 322.561 225.843 322.561 228.056 324.773C229.383 326.1 231.448 326.1 237.052 324.625C243.542 323.003 245.017 323.003 248.852 325.363C252.834 327.723 253.424 327.723 258.291 325.51C264.781 322.413 265.961 322.413 271.123 325.51C275.105 327.723 275.547 327.723 279.087 325.51C283.659 322.413 290.739 322.266 293.246 325.215C294.279 326.395 295.901 327.428 296.933 327.428C297.966 327.428 299.588 326.395 300.621 325.215C301.653 324.035 304.603 323.003 307.258 323.003C309.913 323.003 312.862 324.035 313.895 325.215C316.255 328.018 318.172 328.018 321.269 325.215C324.809 321.971 333.069 321.823 334.691 324.92C336.756 328.608 341.77 328.018 345.163 323.74C346.785 321.676 349.587 320.053 351.505 320.053C353.422 320.053 355.782 321.528 357.257 323.74C360.059 328.018 365.516 328.755 365.516 324.773C365.516 320.938 368.466 318.578 373.333 318.578C376.578 318.578 377.463 317.988 377.021 315.923C376.578 313.711 374.808 313.416 360.354 313.859C351.357 314.154 339.853 315.039 334.543 315.923C318.909 318.283 224.368 319.168 205.49 317.103C196.64 316.071 182.629 314.744 174.517 314.154C157.26 312.974 138.529 310.466 125.108 307.517C119.798 306.484 109.916 304.419 102.984 302.944C96.052 301.617 88.6775 299.552 86.4652 298.372C84.2528 297.34 80.8606 296.455 78.9432 296.455C77.0258 296.455 74.2235 295.422 72.6011 294.242C71.1262 293.062 68.4714 292.03 66.9965 292.03C62.4243 292.03 34.8437 277.871 28.2066 272.119C24.9618 269.317 19.6522 263.122 16.5549 258.55L10.9503 249.995V234.361C10.9503 222.12 11.3927 217.99 13.4576 214.893C14.785 212.828 15.9649 210.173 15.9649 209.288C15.9649 208.256 16.8499 206.338 18.0298 205.158C19.0622 203.831 20.3896 201.029 20.9796 198.669C21.717 195.424 21.4221 194.687 19.3572 194.687C17.8823 194.687 15.9649 196.014 15.2275 197.489Z" fill="black" />
	<path d="M583.359 201.619C582.769 202.061 582.327 203.831 582.327 205.306C582.327 208.256 588.816 209.141 590.439 206.486C592.504 203.241 586.014 198.816 583.359 201.619Z" fill="black" />
	<path d="M604.745 205.306C605.778 208.108 610.35 208.551 610.35 205.896C610.35 204.421 609.022 203.536 607.253 203.536C605.483 203.536 604.45 204.274 604.745 205.306Z" fill="black" />
	<path d="M473.627 215.04C462.86 220.94 459.615 232.592 465.957 242.769C469.349 248.373 475.249 250.143 485.278 248.816C499.437 246.898 503.862 227.43 492.358 218.138C485.573 212.681 479.674 211.648 473.627 215.04Z" fill="black" />
	<path d="M572.888 213.566C571.56 215.63 573.772 221.235 575.69 221.235C578.05 221.235 579.967 216.073 578.64 213.861C577.607 212.091 573.92 211.943 572.888 213.566Z" fill="black" />
	<path d="M595.601 215.335C595.601 216.958 596.633 218.285 597.813 218.285C598.993 218.285 600.026 216.958 600.026 215.335C600.026 213.713 598.993 212.386 597.813 212.386C596.633 212.386 595.601 213.713 595.601 215.335Z" fill="black" />
	<path d="M618.462 214.008C616.987 216.22 618.904 217.695 620.822 215.778C621.854 214.745 621.854 213.861 620.969 213.271C620.084 212.828 618.904 213.123 618.462 214.008Z" fill="black" />
	<path d="M561.973 222.563C558.433 224.775 560.498 230.822 564.775 231.264C569.79 231.854 572.74 228.315 570.527 224.332C568.905 221.088 565.365 220.35 561.973 222.563Z" fill="black" />
	<path d="M583.359 223.742C582.769 224.185 582.327 225.955 582.327 227.43C582.327 229.347 583.507 230.084 586.751 230.084C591.324 230.084 592.504 227.577 589.406 224.48C587.489 222.562 584.834 222.12 583.359 223.742Z" fill="black" />
	<path d="M605.04 225.807C603.713 228.167 606.81 230.674 609.612 229.494C611.677 228.757 611.825 228.167 610.35 226.397C608.138 223.742 606.515 223.595 605.04 225.807Z" fill="black" />
	<path d="M572.74 235.984C572.297 236.722 572.592 238.786 573.477 240.409C574.805 242.916 575.542 243.211 577.312 241.736C580.409 239.229 579.967 234.509 576.575 234.509C574.952 234.509 573.182 235.099 572.74 235.984Z" fill="black" />
	<path d="M595.601 237.607C595.601 241.146 598.993 240.704 599.731 237.017C600.026 235.542 599.288 234.509 597.961 234.509C596.486 234.509 595.601 235.837 595.601 237.607Z" fill="black" />
	<path d="M562.416 245.718C559.466 248.816 560.203 251.323 564.481 251.913C568.905 252.65 571.118 250.291 569.79 246.456C568.61 242.769 565.66 242.474 562.416 245.718Z" fill="black" />
	<path d="M582.917 247.046C581.737 249.848 583.359 252.208 586.604 252.208C590.291 252.208 591.324 250.733 589.554 247.636C587.784 244.244 584.097 243.949 582.917 247.046Z" fill="black" />
	<path d="M605.925 249.258C605.925 249.996 606.957 250.733 608.137 250.733C609.317 250.733 610.35 249.996 610.35 249.258C610.35 248.373 609.317 247.783 608.137 247.783C606.957 247.783 605.925 248.373 605.925 249.258Z" fill="black" />
	<path d="M550.617 256.78C549.142 261.057 552.534 264.155 556.959 262.385C560.498 261.057 561.236 258.255 558.433 255.453C555.631 252.65 551.649 253.388 550.617 256.78Z" fill="black" />
	<path d="M573.035 257.223C571.855 260.025 575.247 262.68 577.755 261.057C580.262 259.582 578.787 255.158 575.837 255.158C574.805 255.158 573.477 256.043 573.035 257.223Z" fill="black" />
	<path d="M595.601 258.845C595.601 260.025 596.633 261.057 597.813 261.057C598.993 261.057 600.026 260.025 600.026 258.845C600.026 257.665 598.993 256.633 597.813 256.633C596.633 256.633 595.601 257.665 595.601 258.845Z" fill="black" />
	<path d="M618.019 257.96C618.314 258.992 619.052 259.73 619.642 259.73C621.412 259.582 620.969 257.517 619.199 256.78C618.167 256.485 617.577 257.075 618.019 257.96Z" fill="black" />
	<path d="M561.973 269.464C562.563 274.626 568.315 276.101 569.79 271.529C571.117 267.399 569.643 265.482 565.218 265.482C561.973 265.482 561.531 266.072 561.973 269.464Z" fill="black" />
	<path d="M582.917 267.694C581.737 270.497 583.359 272.857 586.752 272.857C589.554 272.857 591.176 270.349 590.144 267.252C589.259 264.745 583.949 265.04 582.917 267.694Z" fill="black" />
	<path d="M605.188 266.957C604.155 268.579 605.483 271.382 607.4 271.382C607.99 271.382 608.875 270.497 609.317 269.317C610.202 266.957 606.515 264.892 605.188 266.957Z" fill="black" />
	<path d="M528.935 277.871C527.903 282.886 529.673 284.951 533.803 284.361C536.162 284.066 537.49 282.738 537.785 280.379C538.67 274.036 530.115 271.677 528.935 277.871Z" fill="black" />
	<path d="M551.944 278.019C550.911 280.526 552.239 284.656 554.009 284.656C554.599 284.656 556.368 283.771 557.843 282.738C560.351 280.821 560.351 280.673 557.991 278.314C555.041 275.216 552.976 275.069 551.944 278.019Z" fill="black" />
	<path d="M573.477 280.231C573.477 281.853 574.51 283.181 575.69 283.181C576.87 283.181 577.902 281.853 577.902 280.231C577.902 278.609 576.87 277.281 575.69 277.281C574.51 277.281 573.477 278.609 573.477 280.231Z" fill="black" />
	<path d="M595.601 281.116C595.601 282.443 596.338 283.181 597.371 282.886C600.026 282.001 600.468 278.756 597.961 278.756C596.633 278.756 595.601 279.789 595.601 281.116Z" fill="black" />
	<path d="M517.726 290.703C518.316 295.128 522.888 297.93 524.806 294.98C527.166 291.293 525.838 288.343 521.413 287.901C517.726 287.458 517.284 287.901 517.726 290.703Z" fill="black" />
	<path d="M539.997 289.965C538.965 292.768 542.947 297.192 545.307 295.865C546.192 295.275 546.929 293.21 546.929 291.145C546.929 288.638 546.192 287.606 543.979 287.606C542.357 287.606 540.587 288.638 539.997 289.965Z" fill="black" />
	<path d="M563.448 290.85C564.185 295.865 569.053 296.307 569.053 291.44C569.053 288.49 568.315 287.605 565.955 287.605C563.743 287.605 563.006 288.343 563.448 290.85Z" fill="black" />
	<path d="M14.785 293.8C15.2275 294.833 16.7024 296.013 18.0298 296.16C19.7996 296.603 20.5371 296.013 20.0946 294.685C19.6522 293.653 18.1772 292.473 16.8498 292.325C15.08 291.883 14.3425 292.473 14.785 293.8Z" fill="black" />
	<path d="M486.753 298.225C482.919 302.059 485.573 306.779 491.621 306.779C494.423 306.779 495.898 301.175 493.833 298.667C491.621 296.012 489.113 295.865 486.753 298.225Z" fill="black" />
	<path d="M508.877 297.782C507.697 298.372 507.107 300.585 507.402 302.502C507.697 305.157 508.729 306.042 511.532 306.042C514.334 306.042 515.366 305.157 515.661 302.502C516.104 299.552 514.039 296.455 511.532 296.455C511.089 296.455 509.909 297.045 508.877 297.782Z" fill="black" />
	<path d="M529.23 301.47C529.23 306.042 531.295 307.369 535.13 305.304C539.407 302.944 538.227 298.815 533.213 298.225C529.82 297.782 529.23 298.225 529.23 301.47Z" fill="black" />
	<path d="M552.239 298.962C551.796 299.405 551.354 301.175 551.354 302.649C551.354 304.714 552.239 305.452 554.599 305.009C556.369 304.714 557.991 303.829 558.286 302.797C559.023 300.88 553.714 297.487 552.239 298.962Z" fill="black" />
	<path d="M574.362 300.437C572.592 302.207 573.477 305.304 575.69 305.304C576.87 305.304 577.902 304.419 577.902 303.24C577.902 300.732 575.837 299.11 574.362 300.437Z" fill="black" />
	<path d="M29.2391 302.354C29.2391 304.419 33.0738 305.747 35.2862 304.567C36.4661 303.682 36.3186 303.092 34.9912 302.207C32.1889 300.437 29.2391 300.585 29.2391 302.354Z" fill="black" />
	<path d="M38.0884 306.779C38.0884 308.402 45.168 310.466 46.3479 309.287C46.9378 308.844 46.7904 307.812 46.2004 306.927C45.0205 304.862 38.0884 304.862 38.0884 306.779Z" fill="black" />
	<path d="M48.7078 311.499C49.4452 313.711 58.7371 315.039 58.7371 312.974C58.7371 311.204 55.1973 309.729 51.0676 309.729C49.4452 309.729 48.4128 310.466 48.7078 311.499Z" fill="black" />
	<path d="M454.01 313.416C454.01 315.481 455.043 317.546 456.223 317.988C459.173 319.168 462.86 316.071 462.86 312.531C462.86 310.467 461.827 309.729 458.435 309.729C454.748 309.729 454.01 310.319 454.01 313.416Z" fill="black" />
	<path d="M476.134 313.269C476.134 318.283 478.789 319.463 482.329 315.924C485.868 312.384 484.688 309.729 479.674 309.729C476.871 309.729 476.134 310.466 476.134 313.269Z" fill="black" />
	<path d="M498.257 313.269C498.257 317.989 500.322 319.168 503.272 316.219C506.812 312.826 506.222 309.729 501.945 309.729C498.995 309.729 498.257 310.467 498.257 313.269Z" fill="black" />
	<path d="M519.791 311.056C518.464 313.121 520.528 317.251 522.446 316.661C525.101 315.776 525.396 309.729 522.741 309.729C521.561 309.729 520.233 310.319 519.791 311.056Z" fill="black" />
	<path d="M541.62 311.351C541.177 312.236 541.325 313.564 542.209 314.449C544.127 316.366 546.929 314.744 546.929 311.794C546.929 309.434 543.094 308.992 541.62 311.351Z" fill="black" />
	<path d="M565.365 311.351C563.891 313.564 565.808 315.039 567.725 313.121C568.758 312.089 568.758 311.204 567.873 310.614C566.988 310.171 565.808 310.466 565.365 311.351Z" fill="black" />
	<path d="M64.1942 315.039C62.2768 316.956 64.9316 318.578 69.9463 318.578C73.4861 318.578 74.961 317.989 74.666 316.661C73.9285 314.744 65.8166 313.416 64.1942 315.039Z" fill="black" />
	<path d="M80.1231 319.906C78.7957 322.266 82.3355 323.298 87.9401 322.266C93.1022 321.086 93.2497 321.086 89.71 320.053C84.4003 318.431 81.1556 318.431 80.1231 319.906Z" fill="black" />
	<path d="M445.456 320.348C443.096 322.708 443.244 325.51 445.751 326.395C448.258 327.428 449.586 326.248 449.586 322.856C449.586 319.463 447.521 318.284 445.456 320.348Z" fill="black" />
	<path d="M466.694 322.561C465.662 325.068 468.464 327.87 470.529 326.543C471.119 326.1 471.709 324.478 471.709 322.856C471.709 319.463 468.022 319.168 466.694 322.561Z" fill="black" />
	<path d="M490.145 321.971C489.555 323.446 489.408 325.068 489.998 325.51C491.473 326.985 492.653 324.921 491.915 321.971C491.325 319.463 491.325 319.463 490.145 321.971Z" fill="black" />
	<path d="M261.978 330.525C257.111 333.327 259.618 337.752 266.108 337.752C267.73 337.752 268.173 336.572 267.878 333.77C267.435 329.345 265.666 328.313 261.978 330.525Z" fill="black" />
	<path d="M304.603 329.935C302.981 331.41 303.423 337.457 305.193 338.637C306.078 339.08 308.29 338.195 310.06 336.425C313.157 333.18 313.157 333.18 310.355 330.968C307.11 328.608 305.93 328.46 304.603 329.935Z" fill="black" />
	<path d="M325.841 331.705C324.809 333.622 324.957 335.097 326.284 337.015C327.759 339.079 328.644 339.227 331.299 337.9C334.986 335.982 335.428 333.327 332.773 330.673C330.266 328.165 327.464 328.46 325.841 331.705Z" fill="black" />
	<path d="M347.965 331.557C345.9 335.54 348.26 338.342 352.832 337.162C357.404 335.982 357.847 332.59 353.865 330.378C350.03 328.46 349.587 328.46 347.965 331.557Z" fill="black" />
	<path d="M369.204 331.705C368.171 335.245 369.794 339.227 372.301 339.227C373.628 339.227 374.366 337.457 374.366 334.065C374.366 328.46 370.826 326.69 369.204 331.705Z" fill="black" />
	<path d="M174.222 332.59C171.714 334.507 171.714 334.655 174.222 335.54C177.172 336.72 181.154 335.54 181.154 333.475C181.154 331.115 177.024 330.525 174.222 332.59Z" fill="black" />
	<path d="M197.968 332.59C196.493 336.13 198.705 337.9 201.95 336.13C204.31 334.95 204.605 334.212 203.13 332.443C200.918 329.788 199 329.788 197.968 332.59Z" fill="black" />
	<path d="M219.059 332.443C217.731 335.687 220.976 337.9 224.221 336.13C226.433 334.95 226.728 334.212 225.253 332.443C223.041 329.788 220.091 329.788 219.059 332.443Z" fill="black" />
	<path d="M239.412 332.442C236.758 334.36 236.758 334.507 240.002 336.13C244.28 338.49 248.557 335.687 245.902 332.442C243.837 329.935 242.952 329.935 239.412 332.442Z" fill="black" />
	<path d="M282.184 331.852C280.857 334.065 284.249 337.752 287.494 337.752C289.559 337.752 290.296 336.72 290.296 334.065C290.296 331.115 289.559 330.378 286.757 330.378C284.692 330.378 282.627 331.115 282.184 331.852Z" fill="black" />
	<path d="M433.657 332.295C431.444 334.802 432.772 336.277 437.344 336.277C439.999 336.277 440.884 335.54 440.441 333.77C439.851 330.525 435.869 329.64 433.657 332.295Z" fill="black" />
	<path d="M455.043 331.263C452.683 333.622 454.158 336.277 457.845 336.277C460.647 336.277 461.532 335.54 461.09 333.77C460.647 330.968 456.813 329.493 455.043 331.263Z" fill="black" />
	<path d="M477.166 331.41C475.102 333.327 476.134 336.277 478.789 336.277C482.624 336.277 483.803 334.655 481.886 332.295C479.969 330.23 478.641 329.935 477.166 331.41Z" fill="black" />
	<path d="M499.29 331.263C497.225 333.475 498.405 336.277 501.355 336.277C503.419 336.277 504.157 335.54 503.862 333.77C503.42 331.115 500.912 329.788 499.29 331.263Z" fill="black" />
	<path d="M112.571 333.327C111.981 334.212 114.636 334.802 119.355 334.802C128.352 334.802 128.352 334.065 119.65 332.737C116.111 332.295 113.161 332.442 112.571 333.327Z" fill="black" />
	<path d="M520.381 334.065C520.381 335.245 521.413 336.277 522.593 336.277C523.773 336.277 524.806 335.245 524.806 334.065C524.806 332.885 523.773 331.853 522.593 331.853C521.413 331.853 520.381 332.885 520.381 334.065Z" fill="black" />
	<path d="M250.917 343.062C249.737 346.159 252.834 349.256 255.046 347.044C256.964 345.127 255.784 340.702 253.424 340.702C252.539 340.702 251.507 341.734 250.917 343.062Z" fill="black" />
	<path d="M272.598 344.389C272.598 347.339 273.188 348.224 275.252 347.781C276.58 347.486 277.76 346.012 277.76 344.389C277.76 342.767 276.58 341.292 275.252 340.997C273.188 340.554 272.598 341.439 272.598 344.389Z" fill="black" />
	<path d="M295.016 344.389C295.311 346.454 296.196 348.224 296.934 348.224C297.818 348.224 298.556 346.454 298.851 344.389C299.146 341.734 298.703 340.702 296.934 340.702C295.164 340.702 294.721 341.734 295.016 344.389Z" fill="black" />
	<path d="M315.96 342.914C314.927 345.569 316.402 348.076 319.204 348.076C320.384 348.076 321.269 346.601 321.269 344.389C321.269 340.407 317.287 339.227 315.96 342.914Z" fill="black" />
	<path d="M336.903 342.029C335.428 344.389 337.641 348.076 340.738 348.076C342.803 348.076 343.54 347.191 343.098 344.832C342.655 341.292 338.378 339.522 336.903 342.029Z" fill="black" />
	<path d="M358.732 342.914C358.142 344.242 358.437 346.011 359.322 346.896C361.534 349.109 365.811 347.044 365.221 344.094C364.631 340.702 359.912 339.817 358.732 342.914Z" fill="black" />
	<path d="M445.751 342.767C445.161 344.094 445.161 345.717 445.751 346.159C446.193 346.749 447.521 346.307 448.406 345.422C449.733 344.094 449.733 343.209 448.406 341.882C447.078 340.554 446.488 340.849 445.751 342.767Z" fill="black" />
</svg>
